<?xml version="1.0" encoding="UTF-8"?>
<svg width="32px" height="32px" viewBox="0 0 32 32" version="1.1" xmlns="http://www.w3.org/2000/svg" xmlns:xlink="http://www.w3.org/1999/xlink">
    <!-- Generator: Sketch 55 (78076) - https://sketchapp.com -->
    <title>bancos-BB</title>
    <desc>Created with Sketch.</desc>
    <defs>
        <circle id="path-1" cx="16" cy="16" r="16"></circle>
    </defs>
    <g id="Organisms" stroke="none" stroke-width="1" fill="none" fill-rule="evenodd" opacity="0.8">
        <g id="4.-Organisms/2.-Footer/1.-Desktop-(+)-1366" transform="translate(-791.000000, -328.000000)">
            <g id="4.-Organisms-/-Footer-/-1366">
                <g id="--Payments" transform="translate(695.000000, 104.000000)">
                    <g id="--Transfer" transform="translate(0.000000, 190.000000)">
                        <g id="--Badges" transform="translate(0.000000, 34.000000)">
                            <g id="bancos-BB" transform="translate(96.000000, 0.000000)">
                                <mask id="mask-2" fill="white">
                                    <use xlink:href="#path-1"></use>
                                </mask>
                                <use id="Mask" fill="#879395" xlink:href="#path-1"></use>
                                <g id="banco-do-brasil" mask="url(#mask-2)">
                                    <g transform="translate(4.000000, 4.000000)" id="Shape">
                                        <polygon fill="#879395" fill-rule="evenodd" points="0 0 24 0 24 24 0 24"></polygon>
                                        <path d="M3.864,17.5927767 L5.55701579,16.5173092 L7.2500316,17.5927767 L3.864,19.7450995 L3.864,17.5927767 Z M20.1172427,6.40444518 L18.4242269,7.47991272 L16.7312111,6.40444518 L20.1172427,4.25142857 L20.1172427,6.40444518 Z M20.1172427,14.5800799 L11.9906213,19.7450995 L3.864,14.5800799 L13.5147723,8.4478335 L15.2077881,9.52399488 L7.4196243,14.473227 L12.1602141,17.4859238 L14.3605523,16.0871222 L12.6675365,15.0109608 L16.7312111,12.4277572 L20.1172427,14.5800799 Z M3.864,9.41714196 L11.9913492,4.25351012 L20.1179706,9.41714196 L10.4671983,15.5493884 L8.7741825,14.473227 L16.5623463,9.52399488 L11.8217565,6.51199194 L9.6206904,7.91079354 L11.3137062,8.98626108 L7.2500316,11.5694647 L3.864,9.41714196 Z" fill="#FFFFFF" fill-rule="nonzero"></path>
                                    </g>
                                </g>
                            </g>
                        </g>
                    </g>
                </g>
            </g>
        </g>
    </g>
</svg>