<?xml version="1.0" encoding="UTF-8"?>
<svg width="32px" height="32px" viewBox="0 0 32 32" version="1.1" xmlns="http://www.w3.org/2000/svg" xmlns:xlink="http://www.w3.org/1999/xlink">
    <!-- Generator: Sketch 55 (78076) - https://sketchapp.com -->
    <title>bancos-Santander</title>
    <desc>Created with Sketch.</desc>
    <defs>
        <circle id="path-1" cx="16" cy="16" r="16"></circle>
    </defs>
    <g id="Organisms" stroke="none" stroke-width="1" fill="none" fill-rule="evenodd" opacity="0.8">
        <g id="4.-Organisms/2.-Footer/1.-Desktop-(+)-1366" transform="translate(-839.000000, -328.000000)">
            <g id="4.-Organisms-/-Footer-/-1366">
                <g id="--Payments" transform="translate(695.000000, 104.000000)">
                    <g id="--Transfer" transform="translate(0.000000, 190.000000)">
                        <g id="--Badges" transform="translate(0.000000, 34.000000)">
                            <g id="bancos-Santander" transform="translate(144.000000, 0.000000)">
                                <mask id="mask-2" fill="white">
                                    <use xlink:href="#path-1"></use>
                                </mask>
                                <use id="Mask" fill="#879395" xlink:href="#path-1"></use>
                                <g id="Group-10" mask="url(#mask-2)">
                                    <g transform="translate(4.000000, 4.000000)" id="Shape">
                                        <polygon fill="#879395" points="1.03537532e-05 9.73510854e-16 24 9.73510854e-16 24 24 0 24 0 0"></polygon>
                                        <path d="M12.3438524,4.16949152 C12.2852174,4.66961335 12.3097424,5.2057839 12.4587824,5.63880296 C12.6594824,6.22192374 12.9370874,6.64226058 13.9592624,7.92576906 C15.0378674,9.28011546 15.3830624,9.7709862 15.6397424,10.4733284 C15.8495774,11.0475021 15.8539424,11.3791939 15.7639424,11.9003803 C16.7089424,12.0741091 18.2578424,12.5583782 19.2959924,13.1593061 C20.2589924,13.7308739 20.9591024,14.4720879 21.2155124,15.1910646 C21.3671624,15.6164831 21.3609974,16.2758273 21.2000324,16.6881727 C21.0454574,17.0841875 20.8335074,17.4147934 20.5208024,17.7454862 C19.2779024,19.059571 16.8168524,20.0034396 13.8523424,20.3039036 C13.1966024,20.3703549 11.5896074,20.4176525 11.0384474,20.3866854 C7.07835744,20.1642691 3.89393243,18.8437129 2.98772243,17.0491811 C2.61080243,16.3028856 2.62002743,15.660393 3.01724243,14.9223061 C3.34475243,14.3137775 4.24250243,13.5617489 5.29820243,13.0099862 C6.31376244,12.5380954 7.26722244,12.1854693 8.28926244,11.9078941 C8.33894244,12.5518199 9.63917244,14.0910572 10.0695974,14.6360011 C11.0081174,15.8217002 11.3793674,16.3871875 11.6445974,16.8401854 C11.8038974,17.1122447 11.8938974,17.2859735 11.8488974,17.8038591 C11.8488974,17.8038591 12.2100674,17.4882807 12.3463274,17.2202171 C12.5226374,16.873411 12.5855474,16.521393 12.5516624,16.0692638 C12.5108474,15.5245805 12.4149974,15.1908475 12.1452674,14.6577172 C11.8830524,14.1393538 11.5071674,13.6150403 10.7924324,12.7684163 C9.78326244,11.5730318 9.40958244,10.9162934 9.25541244,10.0634153 C9.08427744,9.11672352 9.35994744,8.1104862 9.92478744,7.62035382 C10.0476374,7.51372776 10.2454124,7.4099682 10.2454124,7.4099682 C10.2454124,7.4099682 10.2285374,7.65392688 10.2285374,7.93115466 C10.2285374,8.51748942 10.2978374,8.82273096 10.5308924,9.26943114 C10.8203324,9.8240604 11.2208324,10.3425974 12.4490174,11.753232 C13.5359924,13.0016473 13.8735374,13.6359311 13.8735374,14.4283951 C13.8735374,14.6144587 13.8739424,14.8103813 13.8739424,14.8103813 C13.8739424,14.8103813 14.1610424,14.5990403 14.2940174,14.4053326 C14.7153974,13.791375 14.7821774,12.8336515 14.4613724,11.9852903 C14.2414574,11.4037331 13.8851474,10.8745551 12.8314724,9.59651904 C11.7590324,8.29555086 11.3089874,7.25317794 11.3089874,6.38453388 C11.3089874,5.51588983 11.5042874,4.68720339 12.3439424,4.16949152 L12.3438524,4.16949152 Z" fill="#FFFFFF"></path>
                                    </g>
                                </g>
                            </g>
                        </g>
                    </g>
                </g>
            </g>
        </g>
    </g>
</svg>