<?xml version="1.0" encoding="UTF-8"?>
<svg width="32px" height="32px" viewBox="0 0 32 32" version="1.1" xmlns="http://www.w3.org/2000/svg" xmlns:xlink="http://www.w3.org/1999/xlink">
    <!-- Generator: Sketch 55 (78076) - https://sketchapp.com -->
    <title>bancos-Itau</title>
    <desc>Created with Sketch.</desc>
    <defs>
        <circle id="path-1" cx="16" cy="16" r="16"></circle>
    </defs>
    <g id="Organisms" stroke="none" stroke-width="1" fill="none" fill-rule="evenodd" opacity="0.8">
        <g id="4.-Organisms/2.-Footer/1.-Desktop-(+)-1366" transform="translate(-743.000000, -328.000000)">
            <g id="4.-Organisms-/-Footer-/-1366">
                <g id="--Payments" transform="translate(695.000000, 104.000000)">
                    <g id="--Transfer" transform="translate(0.000000, 190.000000)">
                        <g id="--Badges" transform="translate(0.000000, 34.000000)">
                            <g id="bancos-Itau" transform="translate(48.000000, 0.000000)">
                                <mask id="mask-2" fill="white">
                                    <use xlink:href="#path-1"></use>
                                </mask>
                                <use id="Mask" fill="#879395" xlink:href="#path-1"></use>
                                <g id="Page-1" mask="url(#mask-2)">
                                    <g transform="translate(4.000000, 4.000000)">
                                        <polygon id="Fill-2" fill="#879395" points="0 24 24 24 24 0.067254237 0 0.067254237"></polygon>
                                        <g id="Group-7" stroke-width="1" fill="none" transform="translate(1.704000, 2.270373)">
                                            <path d="M3.4722432,0.115552543 L17.0828352,0.115552543 C18.0300672,0.115552543 18.8214912,0.433111864 19.4702112,1.04409491 C20.1449952,1.66714576 20.4822432,2.42456949 20.4822432,3.31650169 L20.4822432,16.1202983 C20.4822432,16.9998915 20.1449952,17.7574508 19.4702112,18.3805017 C18.8214912,18.9913492 18.0300672,19.3090441 17.0828352,19.3090441 L3.4722432,19.3090441 C2.5250112,19.3090441 1.7206272,18.9913492 1.0589472,18.3805017 C0.4102272,17.7574508 0.0728352,16.9998915 0.0728352,16.1202983 L0.0728352,3.31650169 C0.0728352,2.42456949 0.4102272,1.66714576 1.0589472,1.04409491 C1.7206272,0.433111864 2.5250112,0.115552543 3.4722432,0.115552543" id="Fill-3" fill="#FFFFFF"></path>
                                            <path d="M1.759536,16.1202712 L3.368448,16.1202712 L3.368448,9.70616952 L1.759536,9.70616952 L1.759536,16.1202712 Z M9.42768,14.6664407 C9.42768,14.0922034 10.03752,13.835661 11.231136,13.8478644 L11.231136,14.3609492 L11.218176,14.6420339 C11.153376,14.8252204 11.010672,14.984 10.828944,15.0818983 C10.647216,15.2284746 10.426752,15.3018305 10.180224,15.3018305 C9.687168,15.3018305 9.42768,15.0818983 9.42768,14.6664407 Z M7.338816,11.3311186 L6.365664,11.3311186 L6.365664,9.70616952 L4.834656,9.70616952 L4.834656,11.3311186 L4.108032,11.3311186 L4.108032,12.4306441 L4.834656,12.4306441 L4.834656,14.3609492 C4.834656,15.0206102 4.9644,15.5094237 5.262768,15.7903729 C5.548176,16.0835254 5.976432,16.2302373 6.495408,16.2302373 C6.8328,16.2302373 7.105248,16.1936271 7.351776,16.1080678 L7.338816,14.984 C7.286832,15.0206102 7.196112,15.0451525 7.040304,15.0451525 C6.79392,15.0451525 6.612192,14.9595932 6.495408,14.7886102 C6.404688,14.6664407 6.365664,14.4465085 6.365664,14.1288136 L6.365664,12.4306441 L7.338816,12.4306441 L7.338816,11.3311186 Z M11.1924,12.919322 C10.154304,12.919322 9.36288,13.0658983 8.81784,13.3835932 C8.259984,13.7012881 7.961616,14.1777627 7.961616,14.7886102 C7.961616,15.1673221 8.13024,15.5094237 8.415648,15.7903729 C8.75304,16.0835254 9.181152,16.2302373 9.700128,16.2302373 C10.400976,16.2302373 10.919808,16.0225085 11.282976,15.6193898 L11.322,15.6193898 L11.322,16.1202712 L12.775248,16.1202712 L12.775248,13.2980339 C12.775248,12.6627797 12.59352,12.1741017 12.256128,11.8197966 C11.840976,11.4165424 11.231136,11.1966101 10.426752,11.1966101 C9.596448,11.1966101 8.895744,11.3431864 8.350848,11.6608814 L8.649216,12.6017627 C9.090288,12.3450847 9.596448,12.2230508 10.154304,12.2230508 C10.855008,12.2230508 11.1924,12.4306441 11.1924,12.8705085 L11.1924,12.919322 Z M15.253488,11.3311186 L13.670496,11.3311186 L13.670496,14.1044068 C13.670496,14.8497627 13.878144,15.3994576 14.254272,15.7659661 C14.604768,16.0835254 15.04584,16.2302373 15.616656,16.2302373 C16.408224,16.2302373 16.992144,15.9369491 17.355312,15.3628475 L17.368272,15.3628475 L17.368272,16.1202712 L18.76968,16.1202712 L18.76968,11.3311186 L17.186832,11.3311186 L17.186832,14.1288136 C17.186832,14.250983 17.173728,14.3609492 17.147808,14.4219661 C16.96608,14.8252204 16.654608,15.0451525 16.174656,15.0451525 C15.564816,15.0451525 15.253488,14.6420339 15.253488,13.8478644 L15.253488,11.3311186 Z M15.65568,11.0012203 L16.758576,11.0012203 L18.12096,9.70616952 L16.628832,9.70616952 L15.65568,11.0012203 Z" id="Fill-5" fill="#879395" fill-rule="nonzero"></path>
                                        </g>
                                    </g>
                                </g>
                            </g>
                        </g>
                    </g>
                </g>
            </g>
        </g>
    </g>
</svg>