<?xml version="1.0" encoding="UTF-8"?>
<svg width="32px" height="32px" viewBox="0 0 32 32" version="1.1" xmlns="http://www.w3.org/2000/svg" xmlns:xlink="http://www.w3.org/1999/xlink">
    <!-- Generator: Sketch 55 (78076) - https://sketchapp.com -->
    <title>bandeiras-Elo</title>
    <desc>Created with Sketch.</desc>
    <defs>
        <polygon id="path-1" points="0 0.0563377993 7.96494307 0.0563377993 7.96494307 6.27605176 0 6.27605176"></polygon>
    </defs>
    <g id="Organisms" stroke="none" stroke-width="1" fill="none" fill-rule="evenodd" opacity="0.8">
        <g id="4.-Organisms/2.-Footer/1.-Desktop-(+)-1366" transform="translate(-743.000000, -230.000000)">
            <g id="4.-Organisms-/-Footer-/-1366">
                <g id="--Payments" transform="translate(695.000000, 104.000000)">
                    <g id="--Credit-Card" transform="translate(0.000000, 44.000000)">
                        <g id="--Badge" transform="translate(0.000000, 34.000000)">
                            <g id="bandeiras-Elo" transform="translate(48.000000, 48.000000)">
                                <circle id="--Bound" fill="#879395" cx="16" cy="16" r="16"></circle>
                                <g id="Logo-/-Elo-Card" transform="translate(6.000000, 11.000000)">
                                    <g id="Group-3" transform="translate(0.000000, 1.587138)">
                                        <g id="Fill-1-Clipped">
                                            <mask id="mask-2" fill="white">
                                                <use xlink:href="#path-1"></use>
                                            </mask>
                                            <g id="path-1"></g>
                                            <path d="M4.03860569,0.0563377993 C5.94238036,0.0563377993 7.538105,1.36160014 7.96494307,3.11828188 L6.33718485,3.82356869 L6.33680799,3.82020769 L4.67151391,4.54521235 L0.676586956,6.27605176 C0.249296648,5.64119654 -3.76865681e-05,4.87862338 -3.76865681e-05,4.05831574 C-3.76865681e-05,1.84804861 1.80816385,0.0563377993 4.03860569,0.0563377993 Z M5.77211245,2.54467151 C5.34874154,2.06890354 4.72909899,1.76865436 4.03860569,1.76865436 C2.7625385,1.76865436 1.72804221,2.79375883 1.72804221,4.05831574 C1.72804221,4.12882201 1.73150937,4.19850671 1.73776534,4.26736983 L5.77211245,2.54467151 Z" id="Fill-1" fill="#FFFFFF" fill-rule="nonzero" mask="url(#mask-2)"></path>
                                        </g>
                                    </g>
                                    <path d="M7.03080614,8.6131175 C5.56370895,10.07024 3.62287358,10.2132395 1.91749259,9.12982021 L2.88102787,7.59691686 C3.85144556,8.2038845 4.82629856,8.10537729 5.80566336,7.30083507 L7.03080614,8.6131175 Z" id="Fill-4" fill="#FFFFFF"></path>
                                    <path d="M8.63921607,7.60318043 L8.62871664,0 L10.1108412,0 L10.1108412,7.39788171 C10.1108412,7.46886586 10.1198739,7.53137086 10.2156816,7.56753829 L11.5049555,8.05489757 L10.9240874,9.52282836 L9.41370686,8.90175471 C8.84102221,8.6662165 8.64021971,8.32495243 8.63921607,7.60318043" id="Fill-6" fill="#FFFFFF"></path>
                                    <path d="M14.0616123,7.64302807 C13.5384581,7.21309129 13.2015164,6.54209788 13.2015164,5.78749925 C13.2015164,5.11658269 13.4680014,4.51175114 13.8946683,4.08358173 L12.9931999,2.53942089 C12.0869326,3.29824589 11.5049555,4.47064011 11.5049555,5.78749925 C11.5049555,7.20671329 12.1805841,8.45887064 13.2101689,9.20540071 L14.0616123,7.64302807 Z" id="Fill-8" fill="#D8DCDE"></path>
                                    <path d="M14.8034441,3.43664035 C15.0450873,3.35112359 15.3055774,3.30431751 15.5772109,3.30431751 C16.5564229,3.30431751 17.3914419,3.91014709 17.7175966,4.76141416 L19.4945079,4.61532917 C19.0655931,2.87769045 17.475056,1.58713806 15.5772109,1.58713806 C15.0409739,1.58713806 14.5296417,1.69097984 14.0616123,1.87798335 L14.8034441,3.43664035 Z" id="Fill-10" fill="#FFFFFF"></path>
                                    <path d="M18.0205875,5.713697 C17.9611221,6.98871092 16.9320544,8.00384236 15.6710484,8.00384236 C15.47342,8.00384236 15.2816382,7.9784995 15.0982415,7.93159157 L14.3811944,9.62995736 C14.7873749,9.76572271 15.2206341,9.84025593 15.6710484,9.84025593 C17.904426,9.84025593 19.7245456,8.0339075 19.81409,5.77146615 L18.0205875,5.713697 Z" id="Fill-12" fill="#D8DCDE"></path>
                                </g>
                            </g>
                        </g>
                    </g>
                </g>
            </g>
        </g>
    </g>
</svg>