<?xml version="1.0" encoding="UTF-8"?>
<svg width="32px" height="32px" viewBox="0 0 32 32" version="1.1" xmlns="http://www.w3.org/2000/svg" xmlns:xlink="http://www.w3.org/1999/xlink">
    <!-- Generator: Sketch 55 (78076) - https://sketchapp.com -->
    <title>bandeiras-Aura</title>
    <desc>Created with Sketch.</desc>
    <defs>
        <circle id="path-1" cx="16" cy="16" r="16"></circle>
        <rect id="path-3" x="0" y="0" width="32" height="19" rx="3.2"></rect>
    </defs>
    <g id="Organisms" stroke="none" stroke-width="1" fill="none" fill-rule="evenodd" opacity="0.8">
        <g id="4.-Organisms/2.-Footer/1.-Desktop-(+)-1366" transform="translate(-695.000000, -230.000000)">
            <g id="4.-Organisms-/-Footer-/-1366">
                <g id="--Payments" transform="translate(695.000000, 104.000000)">
                    <g id="--Credit-Card" transform="translate(0.000000, 44.000000)">
                        <g id="--Badge" transform="translate(0.000000, 34.000000)">
                            <g id="bandeiras-Aura" transform="translate(0.000000, 48.000000)">
                                <mask id="mask-2" fill="white">
                                    <use xlink:href="#path-1"></use>
                                </mask>
                                <use id="Mask" fill="#879395" xlink:href="#path-1"></use>
                                <path d="M32,16 C32,7.163444 24.836556,0 16,0 C7.163444,0 0,7.163444 0,16 C0,24.836556 32,24.836556 32,16 Z" id="Mask" fill="#C6C9CA" mask="url(#mask-2)"></path>
                                <g id="Aura" mask="url(#mask-2)">
                                    <g transform="translate(0.000000, 7.000000)">
                                        <mask id="mask-4" fill="white">
                                            <use xlink:href="#path-3"></use>
                                        </mask>
                                        <use id="Mask" stroke="none" fill="#C6C9CA" fill-rule="evenodd" xlink:href="#path-3"></use>
                                        <path d="M-0.569863111,24.1141202 L32.4769193,24.1141202 L32.4769193,11.7899012 C26.5169745,9.77974378 15.922039,6.76783445 -0.569863111,11.0351005 L-0.569863111,24.1141202 Z" id="Fill-4" stroke="none" fill="#879395" fill-rule="evenodd" mask="url(#mask-4)"></path>
                                        <path d="M32.4768686,11.9426699 C26.5170507,10.0473786 15.9221152,7.20745774 -0.5699139,11.2310007 L-0.5699139,8.20722088 C15.8301874,3.90740696 28.5228294,7.35765747 32.5125477,8.79957481 L32.4768686,11.9426699 Z" id="Fill-7" stroke="none" fill="#D8DCDE" fill-rule="evenodd" mask="url(#mask-4)"></path>
                                        <path d="M10.0675798,6.30809739 C10.8800708,4.19791081 12.7381838,2.37581637 15.9669657,2.39869779 C19.1957475,2.42146063 21.3502861,4.15013249 21.93242,6.41989614 C17.7699796,6.01229899 14.9967425,5.94163933 10.0675798,6.30809739" id="Fill-10" stroke="none" fill="#FFFFFF" fill-rule="evenodd" mask="url(#mask-4)"></path>
                                        <path d="M24.2718792,15.2705367 C24.0157577,15.3288039 23.6330271,15.3773193 23.1235611,15.4179113 C22.8341147,15.4407061 22.6287378,15.4665485 22.5100812,15.4953164 C22.3900361,15.5240843 22.2967519,15.5660172 22.232753,15.6220902 C22.1672394,15.67731 22.1340408,15.7385027 22.1340408,15.8063998 C22.1340408,15.9102569 22.2061184,15.9965606 22.3473702,16.0657985 C22.4887483,16.1343052 22.696776,16.1690461 22.9700649,16.1690461 C23.2409554,16.1690461 23.4823079,16.1364994 23.6931127,16.0709183 C23.9037913,16.0053372 24.0596858,15.9154985 24.1585243,15.8018896 C24.234515,15.7142451 24.2718792,15.5845456 24.2718792,15.4135229 L24.2718792,15.2705367 Z M24.3305764,16.1388154 C24.0691531,16.261079 23.8184595,16.3472608 23.5783693,16.3980922 C23.3370167,16.4483141 23.0782443,16.4734251 22.8020522,16.4734251 C22.3459817,16.4734251 21.9967022,16.4122324 21.751184,16.2891155 C21.5071806,16.1659986 21.3844846,16.0083847 21.3844846,15.8173707 C21.3844846,15.7046151 21.4298013,15.602099 21.5233381,15.5093347 C21.6152338,15.4164485 21.7365412,15.3419688 21.8859981,15.2860177 C22.0365909,15.2299447 22.2046037,15.1871585 22.3926869,15.1585125 C22.5301519,15.1385213 22.7381796,15.1186519 23.0168964,15.1003672 C23.5850595,15.0627008 24.0037658,15.0184518 24.2718792,14.9660358 C24.27453,14.9130101 24.2757924,14.8791226 24.2757924,14.8651043 C24.2757924,14.7066371 24.2092689,14.5946129 24.0757171,14.5304945 C23.8971011,14.4421186 23.6289877,14.398601 23.2755425,14.398601 C22.9448188,14.398601 22.7009417,14.4302945 22.5421438,14.4944128 C22.3847344,14.5585311 22.2687287,14.672018 22.1926118,14.8349955 L21.5059183,14.7825794 C21.5685286,14.6204552 21.6711539,14.4884398 21.8139205,14.3889711 C21.9566871,14.288771 22.1647148,14.2114878 22.4353528,14.1576089 C22.7062433,14.10373 23.0195472,14.0765468 23.3769055,14.0765468 C23.7317392,14.0765468 24.0185348,14.1000731 24.2398167,14.1457848 C24.461351,14.1922279 24.6239358,14.2496418 24.7293382,14.3197331 C24.8333521,14.3898244 24.9054296,14.477469 24.9479693,14.5843735 C24.9706908,14.6506859 24.9826827,14.7701458 24.9826827,14.9426313 L24.9826827,15.4606974 C24.9826827,15.8226123 24.9973254,16.0510489 25.0279994,16.1461293 C25.0574111,16.241941 25.1173705,16.3340959 25.2054793,16.4217404 L24.4704396,16.4217404 C24.3984883,16.3415316 24.3505207,16.2471826 24.3305764,16.1388154 Z M18.3385446,16.4217404 L18.3385446,14.128841 L18.9705803,14.128841 L18.9705803,14.4760062 C19.132029,14.313882 19.2814859,14.2062462 19.4188245,14.1546833 C19.5547747,14.1029986 19.7054938,14.0765468 19.8695934,14.0765468 C20.1069065,14.0765468 20.3469968,14.1186016 20.5923888,14.2017359 L20.3496476,14.5629194 C20.1789841,14.5062369 20.0069321,14.4782003 19.83488,14.4782003 C19.6801215,14.4782003 19.5427828,14.5040427 19.4200868,14.5547523 C19.2973909,14.606437 19.2106706,14.6772596 19.1587899,14.7678298 C19.0800221,14.9056963 19.0412693,15.0568497 19.0412693,15.221168 L19.0412693,16.4217404 L18.3385446,16.4217404 Z M16.0034081,16.4217404 L16.0034081,16.0849365 C15.6793746,16.3443352 15.2405977,16.4734251 14.6856888,16.4734251 C14.4416854,16.4734251 14.2123247,16.4475828 14.0002576,16.39602 C13.7881905,16.3443352 13.6307812,16.2787542 13.5280297,16.2006176 C13.4240158,16.1217497 13.3520644,16.025938 13.3106608,15.912451 C13.2827639,15.8358991 13.2681212,15.7149764 13.2681212,15.5490734 L13.2681212,14.128841 L13.9708459,14.128841 L13.9708459,15.4002361 C13.9708459,15.6036836 13.9854886,15.7400874 14.0135118,15.8107881 C14.0589547,15.9131824 14.1522391,15.9927818 14.2948794,16.0517803 C14.4390345,16.1100475 14.6163883,16.1388154 14.8271931,16.1388154 C15.0377454,16.1388154 15.235296,16.1091942 15.4206023,16.0495861 C15.6060348,15.9898562 15.736557,15.9080627 15.812674,15.8056685 C15.8900532,15.7024209 15.9286798,15.5528522 15.9286798,15.3574499 L15.9286798,14.128841 L16.6315307,14.128841 L16.6315307,16.4217404 L16.0034081,16.4217404 Z M8.44700288,15.1216994 L10.3900677,15.1216994 L9.7913568,14.2452535 C9.60996366,13.9792723 9.47388729,13.7603437 9.38590471,13.5885895 C9.31256484,13.7920371 9.20981326,13.9932905 9.07651392,14.1936907 L8.44700288,15.1216994 Z M6.79452046,16.4217404 L8.99509532,13.2562958 L9.81117497,13.2562958 L12.155905,16.4217404 L11.2916053,16.4217404 L10.6234677,15.4628916 L8.22824555,15.4628916 L7.59999673,16.4217404 L6.79452046,16.4217404 Z" id="Fill-12" stroke="none" fill="#FFFFFF" fill-rule="nonzero" mask="url(#mask-4)"></path>
                                        <path d="M24.2718792,15.2705367 C24.0157577,15.3288039 23.6330271,15.3773193 23.1235611,15.4179113 C22.8341147,15.4407061 22.6287378,15.4665485 22.5100812,15.4953164 C22.3900361,15.5240843 22.2967519,15.5660172 22.232753,15.6220902 C22.1672394,15.67731 22.1340408,15.7385027 22.1340408,15.8063998 C22.1340408,15.9102569 22.2061184,15.9965606 22.3473702,16.0657985 C22.4887483,16.1343052 22.696776,16.1690461 22.9700649,16.1690461 C23.2409554,16.1690461 23.4823079,16.1364994 23.6931127,16.0709183 C23.9037913,16.0053372 24.0596858,15.9154985 24.1585243,15.8018896 C24.234515,15.7142451 24.2718792,15.5845456 24.2718792,15.4135229 L24.2718792,15.2705367 Z M24.3305764,16.1388154 C24.0691531,16.261079 23.8184595,16.3472608 23.5783693,16.3980922 C23.3370167,16.4483141 23.0782443,16.4734251 22.8020522,16.4734251 C22.3459817,16.4734251 21.9967022,16.4122324 21.751184,16.2891155 C21.5071806,16.1659986 21.3844846,16.0083847 21.3844846,15.8173707 C21.3844846,15.7046151 21.4298013,15.602099 21.5233381,15.5093347 C21.6152338,15.4164485 21.7365412,15.3419688 21.8859981,15.2860177 C22.0365909,15.2299447 22.2046037,15.1871585 22.3926869,15.1585125 C22.5301519,15.1385213 22.7381796,15.1186519 23.0168964,15.1003672 C23.5850595,15.0627008 24.0037658,15.0184518 24.2718792,14.9660358 C24.27453,14.9130101 24.2757924,14.8791226 24.2757924,14.8651043 C24.2757924,14.7066371 24.2092689,14.5946129 24.0757171,14.5304945 C23.8971011,14.4421186 23.6289877,14.398601 23.2755425,14.398601 C22.9448188,14.398601 22.7009417,14.4302945 22.5421438,14.4944128 C22.3847344,14.5585311 22.2687287,14.672018 22.1926118,14.8349955 L21.5059183,14.7825794 C21.5685286,14.6204552 21.6711539,14.4884398 21.8139205,14.3889711 C21.9566871,14.288771 22.1647148,14.2114878 22.4353528,14.1576089 C22.7062433,14.10373 23.0195472,14.0765468 23.3769055,14.0765468 C23.7317392,14.0765468 24.0185348,14.1000731 24.2398167,14.1457848 C24.461351,14.1922279 24.6239358,14.2496418 24.7293382,14.3197331 C24.8333521,14.3898244 24.9054296,14.477469 24.9479693,14.5843735 C24.9706908,14.6506859 24.9826827,14.7701458 24.9826827,14.9426313 L24.9826827,15.4606974 C24.9826827,15.8226123 24.9973254,16.0510489 25.0279994,16.1461293 C25.0574111,16.241941 25.1173705,16.3340959 25.2054793,16.4217404 L24.4704396,16.4217404 C24.3984883,16.3415316 24.3505207,16.2471826 24.3305764,16.1388154 Z M18.3385446,16.4217404 L18.3385446,14.128841 L18.9705803,14.128841 L18.9705803,14.4760062 C19.132029,14.313882 19.2814859,14.2062462 19.4188245,14.1546833 C19.5547747,14.1029986 19.7054938,14.0765468 19.8695934,14.0765468 C20.1069065,14.0765468 20.3469968,14.1186016 20.5923888,14.2017359 L20.3496476,14.5629194 C20.1789841,14.5062369 20.0069321,14.4782003 19.83488,14.4782003 C19.6801215,14.4782003 19.5427828,14.5040427 19.4200868,14.5547523 C19.2973909,14.606437 19.2106706,14.6772596 19.1587899,14.7678298 C19.0800221,14.9056963 19.0412693,15.0568497 19.0412693,15.221168 L19.0412693,16.4217404 L18.3385446,16.4217404 Z M16.0034081,16.4217404 L16.0034081,16.0849365 C15.6793746,16.3443352 15.2405977,16.4734251 14.6856888,16.4734251 C14.4416854,16.4734251 14.2123247,16.4475828 14.0002576,16.39602 C13.7881905,16.3443352 13.6307812,16.2787542 13.5280297,16.2006176 C13.4240158,16.1217497 13.3520644,16.025938 13.3106608,15.912451 C13.2827639,15.8358991 13.2681212,15.7149764 13.2681212,15.5490734 L13.2681212,14.128841 L13.9708459,14.128841 L13.9708459,15.4002361 C13.9708459,15.6036836 13.9854886,15.7400874 14.0135118,15.8107881 C14.0589547,15.9131824 14.1522391,15.9927818 14.2948794,16.0517803 C14.4390345,16.1100475 14.6163883,16.1388154 14.8271931,16.1388154 C15.0377454,16.1388154 15.235296,16.1091942 15.4206023,16.0495861 C15.6060348,15.9898562 15.736557,15.9080627 15.812674,15.8056685 C15.8900532,15.7024209 15.9286798,15.5528522 15.9286798,15.3574499 L15.9286798,14.128841 L16.6315307,14.128841 L16.6315307,16.4217404 L16.0034081,16.4217404 Z M8.44700288,15.1216994 L10.3900677,15.1216994 L9.7913568,14.2452535 C9.60996366,13.9792723 9.47388729,13.7603437 9.38590471,13.5885895 C9.31256484,13.7920371 9.20981326,13.9932905 9.07651392,14.1936907 L8.44700288,15.1216994 Z M6.79452046,16.4217404 L8.99509532,13.2562958 L9.81117497,13.2562958 L12.155905,16.4217404 L11.2916053,16.4217404 L10.6234677,15.4628916 L8.22824555,15.4628916 L7.59999673,16.4217404 L6.79452046,16.4217404 Z" id="Stroke-14" stroke="#FFFFFF" stroke-width="0.5" fill="none" mask="url(#mask-4)"></path>
                                    </g>
                                </g>
                            </g>
                        </g>
                    </g>
                </g>
            </g>
        </g>
    </g>
</svg>