<?xml version="1.0" encoding="UTF-8"?>
<svg width="32px" height="32px" viewBox="0 0 32 32" version="1.1" xmlns="http://www.w3.org/2000/svg" xmlns:xlink="http://www.w3.org/1999/xlink">
    <!-- Generator: Sketch 55 (78076) - https://sketchapp.com -->
    <title>bandeiras-MasterCard</title>
    <desc>Created with Sketch.</desc>
    <g id="Organisms" stroke="none" stroke-width="1" fill="none" fill-rule="evenodd" opacity="0.8">
        <g id="4.-Organisms/2.-Footer/1.-Desktop-(+)-1366" transform="translate(-743.000000, -182.000000)">
            <g id="4.-Organisms-/-Footer-/-1366">
                <g id="--Payments" transform="translate(695.000000, 104.000000)">
                    <g id="--Credit-Card" transform="translate(0.000000, 44.000000)">
                        <g id="--Badge" transform="translate(0.000000, 34.000000)">
                            <g id="bandeiras-MasterCard" transform="translate(48.000000, 0.000000)">
                                <circle id="--Bound" fill="#879395" cx="16" cy="16" r="16"></circle>
                                <g id="Group" transform="translate(6.000000, 10.000000)" fill-rule="nonzero">
                                    <g id="_Group_">
                                        <rect id="Rectangle" fill="#D8DCDE" x="7.01162132" y="1.25157974" width="5.17857143" height="9.02572344"></rect>
                                        <path d="M7.3404195,5.76523864 C7.33848331,4.00369871 8.17208883,2.33918567 9.60090703,1.25157974 C7.17434195,-0.597880154 3.68969718,-0.328490327 1.59588741,1.87042929 C-0.49792236,4.0693489 -0.49792236,7.45953401 1.59588741,9.65845363 C3.68969718,11.8573732 7.17434195,12.1267631 9.60090703,10.2773032 C8.17254339,9.19004251 7.33898879,7.52621907 7.3404195,5.76523864 L7.3404195,5.76523864 Z" id="_Path_" fill="#FFFFFF"></path>
                                        <path d="M19.1771542,5.76523864 C19.1771014,7.96281821 17.8832381,9.96746151 15.8450732,10.9277888 C13.8069082,11.8881162 11.3822682,11.6355294 9.60090703,10.2773032 C11.0286474,9.18911946 11.8622648,7.52551723 11.8622648,5.76444146 C11.8622648,4.00336569 11.0286474,2.33976346 9.60090703,1.25157974 C11.3822682,-0.106646524 13.8069082,-0.359233267 15.8450732,0.601094067 C17.8832381,1.5614214 19.1771014,3.5660647 19.1771542,5.76364427 L19.1771542,5.76523864 Z" id="Path" fill="#C6C9CA"></path>
                                        <path d="M18.7572804,9.7033303 L18.7572804,9.2013318 L18.9296309,9.2013318 L18.9296309,9.09747005 L18.493254,9.09747005 L18.493254,9.2013318 L18.6802727,9.2013318 L18.6802727,9.7033303 L18.7572804,9.7033303 Z M19.6043651,9.7033303 L19.6043651,9.09747005 L19.4723519,9.09747005 L19.3183365,9.53022737 L19.1643211,9.09747005 L19.046976,9.09747005 L19.046976,9.7033303 L19.1423189,9.7033303 L19.1423189,9.24893511 L19.2853332,9.64274428 L19.3843431,9.64274428 L19.5273574,9.24893511 L19.5273574,9.70765787 L19.6043651,9.7033303 Z" id="Shape" fill="#C6C9CA"></path>
                                    </g>
                                </g>
                            </g>
                        </g>
                    </g>
                </g>
            </g>
        </g>
    </g>
</svg>