<?xml version="1.0" encoding="UTF-8"?>
<svg width="32px" height="32px" viewBox="0 0 32 32" version="1.1" xmlns="http://www.w3.org/2000/svg" xmlns:xlink="http://www.w3.org/1999/xlink">
    <!-- Generator: Sketch 55 (78076) - https://sketchapp.com -->
    <title>bandeiras-Diners</title>
    <desc>Created with Sketch.</desc>
    <defs>
        <polygon id="path-1" points="0.0220012868 0.0578700864 11.4643323 0.0578700864 11.4643323 9.00442804 0.0220012868 9.00442804"></polygon>
        <polygon id="path-3" points="0.044224156 0.0179716237 2.02757138 0.0179716237 2.02757138 1.91381388 0.044224156 1.91381388"></polygon>
    </defs>
    <g id="Organisms" stroke="none" stroke-width="1" fill="none" fill-rule="evenodd" opacity="0.8">
        <g id="4.-Organisms/2.-Footer/1.-Desktop-(+)-1366" transform="translate(-839.000000, -182.000000)">
            <g id="4.-Organisms-/-Footer-/-1366">
                <g id="--Payments" transform="translate(695.000000, 104.000000)">
                    <g id="--Credit-Card" transform="translate(0.000000, 44.000000)">
                        <g id="--Badge" transform="translate(0.000000, 34.000000)">
                            <g id="bandeiras-Diners" transform="translate(144.000000, 0.000000)">
                                <circle id="--Bound" fill="#879395" cx="16" cy="16" r="16"></circle>
                                <g id="Page-1" transform="translate(5.000000, 7.000000)">
                                    <g id="Group-3" transform="translate(5.539560, 0.033264)">
                                        <g id="Fill-1-Clipped">
                                            <mask id="mask-2" fill="white">
                                                <use xlink:href="#path-1"></use>
                                            </mask>
                                            <g id="path-1"></g>
                                            <path d="M6.7252385,9.00437585 C9.20280684,9.01622324 11.4643323,7.01036404 11.4643323,4.56997794 C11.4643323,1.90157458 9.20280684,0.0571136742 6.7252385,0.0578427462 L4.59287711,0.0578427462 C2.08576446,0.0571136742 0.0220012868,1.90193912 0.0220012868,4.56997794 C0.0220012868,7.01091084 2.08576446,9.01622324 4.59287711,9.00437585 L6.7252385,9.00437585 Z" id="Fill-1" fill="#FEFEFE" mask="url(#mask-2)"></path>
                                        </g>
                                    </g>
                                    <g id="Group-27" transform="translate(0.000028, 0.035033)">
                                        <path d="M10.1425378,0.425958901 C7.85146804,0.426687973 5.99488441,2.25957486 5.99442278,4.5215206 C5.99488441,6.78319294 7.85146804,8.61562415 10.1425378,8.6162621 C12.4342539,8.61562415 14.2911145,6.78319294 14.2913915,4.5215206 C14.2911145,2.25957486 12.4342539,0.426687973 10.1425378,0.425958901 M7.51318555,4.5215206 C7.51530905,3.41615639 8.21486321,2.47364862 9.20099726,2.09890564 L9.20099726,6.94349764 C8.21486321,6.56902805 7.51530905,5.62706709 7.51318555,4.5215206 M11.0836168,6.94440898 L11.0836168,2.0988145 C12.0703971,2.47237275 12.7708745,3.41542731 12.7726287,4.5215206 C12.7708745,5.6276139 12.0703971,6.57012166 11.0836168,6.94440898" id="Fill-4" fill="#879395" fill-rule="nonzero"></path>
                                        <path d="M0.457050651,9.83713867 C0.457050651,9.4118163 0.232144505,9.43979444 0.0167479372,9.43532891 L0.0167479372,9.3123891 C0.203523444,9.32141135 0.395007576,9.32141135 0.582152387,9.32141135 C0.783330751,9.32141135 1.05643107,9.3123891 1.41123991,9.3123891 C2.65210141,9.3123891 3.3277431,10.1302256 3.3277431,10.967747 C3.3277431,11.4362668 3.04984183,12.6139003 1.35353616,12.6139003 C1.10933387,12.6139003 0.883873772,12.6044224 0.658690645,12.6044224 C0.443294077,12.6044224 0.232144505,12.6090702 0.0167479372,12.6139003 L0.0167479372,12.4908694 C0.303974137,12.4624357 0.443294077,12.4529577 0.457050651,12.1313458 L0.457050651,9.83713867 Z M0.926713035,12.0557046 C0.926713035,12.419876 1.19058076,12.4624357 1.42518113,12.4624357 C2.46052494,12.4624357 2.80037697,11.6915332 2.80037697,10.9866117 C2.80037697,10.1023386 2.22537061,9.46403611 1.30072568,9.46403611 C1.10388663,9.46403611 1.01340715,9.47779733 0.926713035,9.48280968 L0.926713035,12.0557046 Z" id="Fill-6" fill="#FFFFFF" fill-rule="nonzero"></path>
                                        <path d="M3.49560101,12.4908877 L3.58663445,12.4908877 C3.72050716,12.4908877 3.81643388,12.4908877 3.81643388,12.3344106 L3.81643388,11.0529755 C3.81643388,10.8449166 3.74469657,10.8161182 3.56724599,10.722068 L3.56724599,10.6463356 C3.79242912,10.5797166 4.06100546,10.4903142 4.07993229,10.4760973 C4.11372361,10.4572326 4.14216002,10.4522202 4.16634943,10.4522202 C4.18998489,10.4522202 4.19986377,10.4805629 4.19986377,10.5186569 L4.19986377,12.3344106 C4.19986377,12.4908877 4.30530007,12.4908877 4.4396344,12.4908877 L4.52088129,12.4908877 L4.52088129,12.6139186 C4.35783356,12.6139186 4.18998489,12.6044406 4.01798154,12.6044406 C3.84533191,12.6044406 3.67277461,12.6090885 3.49560101,12.6139186 L3.49560101,12.4908877 Z M4.00837963,9.72396846 C3.88355488,9.72396846 3.77350229,9.61041554 3.77350229,9.48747573 C3.77350229,9.36900152 3.88872514,9.26000533 4.00837963,9.26000533 C4.13255811,9.26000533 4.24307234,9.35961478 4.24307234,9.48747573 C4.24307234,9.61533676 4.13745139,9.72396846 4.00837963,9.72396846 Z" id="Fill-8" fill="#FFFFFF" fill-rule="nonzero"></path>
                                        <path d="M4.97620544,11.0811541 C4.97620544,10.9063592 4.92330265,10.8591517 4.69848882,10.7692936 L4.69848882,10.6794355 C4.90428349,10.6132722 5.10047625,10.5515745 5.3307373,10.4522385 C5.34514016,10.4522385 5.35917371,10.4618987 5.35917371,10.4992635 L5.35917371,10.806932 C5.63264333,10.6132722 5.86752069,10.4522385 6.18899984,10.4522385 C6.59588054,10.4522385 6.73963213,10.7454165 6.73963213,11.1144181 L6.73963213,12.3344288 C6.73963213,12.4909059 6.84506842,12.4909059 6.9792181,12.4909059 L7.06563525,12.4909059 L7.06563525,12.6138456 C6.89741726,12.6138456 6.72984556,12.6044588 6.5577499,12.6044588 C6.38491562,12.6044588 6.21245064,12.6091067 6.03989334,12.6138456 L6.03989334,12.4909059 L6.12621815,12.4909059 C6.26055249,12.4909059 6.35592525,12.4909059 6.35592525,12.3344288 L6.35592525,11.1097702 C6.35592525,10.8400136 6.18899984,10.7077781 5.91553021,10.7077781 C5.76217672,10.7077781 5.51778979,10.8305356 5.35917371,10.934884 L5.35917371,12.3344288 C5.35917371,12.4909059 5.46507164,12.4909059 5.59931365,12.4909059 L5.68545381,12.4909059 L5.68545381,12.6138456 C5.51778979,12.6138456 5.34984878,12.6044588 5.17729148,12.6044588 C5.00510348,12.6044588 4.8322692,12.6091067 4.65989656,12.6138456 L4.65989656,12.4909059 L4.74631369,12.4909059 C4.88046337,12.4909059 4.97620544,12.4909059 4.97620544,12.3344288 L4.97620544,11.0811541 Z" id="Fill-10" fill="#FFFFFF"></path>
                                        <path d="M7.42996289,11.3085426 C7.41999168,11.3511933 7.41999168,11.4218221 7.42996289,11.582947 C7.45812233,12.0321465 7.75107274,12.4009658 8.13385637,12.4009658 C8.39781641,12.4009658 8.60407266,12.258979 8.78106165,12.084184 L8.84799801,12.1503473 C8.62743116,12.4388775 8.35442315,12.6849393 7.96176071,12.6849393 C7.19960951,12.6849393 7.04634834,11.956323 7.04634834,11.6537582 C7.04634834,10.7263786 7.67878144,10.4521564 8.01392486,10.4521564 C8.40243266,10.4521564 8.81965389,10.693297 8.82399322,11.1947162 C8.82399322,11.2233323 8.82399322,11.2514926 8.81965389,11.2801087 L8.77607602,11.3085426 L7.42996289,11.3085426 Z M8.2781619,11.1570779 C8.39781641,11.1570779 8.41175763,11.0954713 8.41175763,11.0387859 C8.41175763,10.7976454 8.26338976,10.6037122 7.9949057,10.6037122 C7.70278623,10.6037122 7.50160787,10.8161456 7.44408877,11.1570779 L8.2781619,11.1570779 Z" id="Fill-12" fill="#FFFFFF" fill-rule="nonzero"></path>
                                        <path d="M8.93440587,12.4908877 L9.06384696,12.4908877 C9.19753499,12.4908877 9.29346171,12.4908877 9.29346171,12.3344106 L9.29346171,11.0057681 C9.29346171,10.8592246 9.11628811,10.8306085 9.04427388,10.792788 L9.04427388,10.722068 C9.39409706,10.5752511 9.58585818,10.4521291 9.62962074,10.4521291 C9.65768779,10.4521291 9.6720907,10.466346 9.6720907,10.5139179 L9.6720907,10.9395137 L9.6822465,10.9395137 C9.80162409,10.7550584 10.0031717,10.4521291 10.2952912,10.4521291 C10.4152227,10.4521291 10.5683915,10.5325093 10.5683915,10.7028387 C10.5683915,10.8306085 10.4775427,10.9444349 10.3433931,10.9444349 C10.1942865,10.9444349 10.1942865,10.8306085 10.0268072,10.8306085 C9.94519101,10.8306085 9.67698395,10.9395137 9.67698395,11.223396 L9.67698395,12.3344106 C9.67698395,12.4908877 9.77263366,12.4908877 9.906968,12.4908877 L10.1750828,12.4908877 L10.1750828,12.6139186 C9.91149202,12.6090885 9.71095993,12.6044406 9.50461129,12.6044406 C9.30823392,12.6044406 9.10687091,12.6090885 8.93440587,12.6139186 L8.93440587,12.4908877 Z" id="Fill-14" fill="#FFFFFF"></path>
                                        <path d="M10.7791718,11.9563595 C10.8415842,12.2684022 11.0330683,12.5334199 11.3830762,12.5334199 C11.6654091,12.5334199 11.7707531,12.3631816 11.7707531,12.1976823 C11.7707531,11.6394866 10.7265459,11.8191116 10.7265459,11.0578694 C10.7265459,10.7927606 10.9424042,10.4521928 11.4693087,10.4521928 C11.6223852,10.4521928 11.8284568,10.4949347 12.0152323,10.5895318 L12.0489313,11.0716306 L11.9387864,11.0716306 C11.8908692,10.7738958 11.7232052,10.6037487 11.4163136,10.6037487 C11.2245524,10.6037487 11.0426702,10.7125627 11.0426702,10.9157915 C11.0426702,11.4695217 12.1543676,11.2989188 12.1543676,12.0414786 C12.1543676,12.3534302 11.9004711,12.6848846 11.330081,12.6848846 C11.1384123,12.6848846 10.9131368,12.6187213 10.7456575,12.5241243 L10.6927546,11.9802366 L10.7791718,11.9563595 Z" id="Fill-16" fill="#FFFFFF"></path>
                                        <path d="M16.4811981,10.1683013 L16.3617282,10.1683013 C16.2704179,9.61530027 15.8726774,9.39275109 15.3362634,9.39275109 C14.7848924,9.39275109 13.9845183,9.75674027 13.9845183,10.8919053 C13.9845183,11.8478098 14.6751168,12.5334108 15.4127093,12.5334108 C15.8868956,12.5334108 16.2802044,12.2119812 16.3761312,11.7150275 L16.4861837,11.7432791 L16.3761312,12.4338925 C16.1747681,12.5572879 15.6332761,12.6848755 15.3167825,12.6848755 C14.1958525,12.6848755 13.4867888,11.9705672 13.4867888,10.9063956 C13.4867888,9.93663878 14.3634242,9.24110408 15.3025644,9.24110408 C15.6906106,9.24110408 16.0645308,9.36440838 16.4332809,9.49226941 L16.4811981,10.1683013 Z" id="Fill-18" fill="#FFFFFF"></path>
                                        <path d="M16.6540416,12.4908877 L16.7447058,12.4908877 C16.8792247,12.4908877 16.9751514,12.4908877 16.9751514,12.3344106 L16.9751514,9.70036472 C16.9751514,9.3927875 16.9032295,9.38330956 16.7211627,9.3313632 L16.7211627,9.25563086 C16.9127391,9.19429768 17.1140098,9.10917851 17.2146451,9.05212869 C17.266994,9.02396823 17.3055862,9 17.3197121,9 C17.3487948,9 17.3584891,9.02861608 17.3584891,9.06643672 L17.3584891,12.3344106 C17.3584891,12.4908877 17.463833,12.4908877 17.5981674,12.4908877 L17.6791373,12.4908877 L17.6791373,12.6139186 C17.5166435,12.6139186 17.3487948,12.6044406 17.1763298,12.6044406 C17.0039572,12.6044406 16.8314922,12.6090885 16.6540416,12.6139186 L16.6540416,12.4908877 Z" id="Fill-20" fill="#FFFFFF"></path>
                                        <path d="M19.7306488,12.3534758 C19.7306488,12.4388684 19.78309,12.4434251 19.8645215,12.4434251 C19.9221329,12.4434251 19.9937778,12.4388684 20.0563749,12.4388684 L20.0563749,12.5384779 C19.8500263,12.5572514 19.4571791,12.6565875 19.3660533,12.6849301 L19.3420486,12.6706221 L19.3420486,12.287586 C19.0549147,12.5193397 18.8342556,12.6849301 18.4936649,12.6849301 C18.2349675,12.6849301 17.9667605,12.5193397 17.9667605,12.1222689 L17.9667605,10.9110981 C17.9667605,10.7880672 17.9476489,10.6697753 17.6797189,10.6463538 L17.6797189,10.5563134 C17.8522762,10.5516656 18.2349675,10.523323 18.2974722,10.523323 C18.3505596,10.523323 18.3505596,10.5563134 18.3505596,10.6604796 L18.3505596,11.8805816 C18.3505596,12.0226594 18.3505596,12.4292993 18.7672269,12.4292993 C18.9300899,12.4292993 19.1457636,12.3062684 19.3467573,12.1412248 L19.3467573,10.8683563 C19.3467573,10.7739414 19.1168655,10.7221773 18.9447699,10.6747877 L18.9447699,10.5895774 C19.3754706,10.5610524 19.6442316,10.523323 19.6920565,10.523323 C19.7306488,10.523323 19.7306488,10.5563134 19.7306488,10.6086244 L19.7306488,12.3534758 Z" id="Fill-22" fill="#FFFFFF"></path>
                                        <path d="M20.6840163,10.792715 C20.8755005,10.6320458 21.1344749,10.4521473 21.3980656,10.4521473 C21.9538682,10.4521473 22.2891039,10.9302363 22.2891039,11.445599 C22.2891039,12.0651278 21.8291358,12.6849301 21.1437075,12.6849301 C20.7894527,12.6849301 20.6024925,12.5713772 20.47776,12.5193397 L20.3341931,12.6279714 L20.2339271,12.5761162 C20.276397,12.2970639 20.300771,12.0226594 20.300771,11.7341292 L20.300771,9.70038301 C20.300771,9.39271459 20.2285721,9.38323672 20.0465976,9.33129029 L20.0465976,9.25564907 C20.2386357,9.19422476 20.4395371,9.1091056 20.5401724,9.0521469 C20.5928906,9.02398651 20.6310212,9.00001821 20.6458857,9.00001821 C20.6745991,9.00001821 20.6840163,9.02863429 20.6840163,9.06645493 L20.6840163,10.792715 Z M20.6840163,12.0791625 C20.6840163,12.2589699 20.8564813,12.5618993 21.1774988,12.5618993 C21.6902775,12.5618993 21.9057663,12.0651278 21.9057663,11.6439977 C21.9057663,11.1332827 21.5131962,10.7077781 21.1394605,10.7077781 C20.9616406,10.7077781 20.8133651,10.8214222 20.6840163,10.9302363 L20.6840163,12.0791625 Z" id="Fill-24" fill="#FFFFFF" fill-rule="nonzero"></path>
                                        <path d="M0.0112914703,15.3639233 L0.047944894,15.3639233 C0.141748114,15.3639233 0.240721591,15.3512557 0.240721591,15.2175621 L0.240721591,13.8691435 C0.240721591,13.7349032 0.141748114,13.7221444 0.047944894,13.7221444 L0.0112914703,13.7221444 L0.0112914703,13.6449539 C0.113034727,13.6449539 0.269434978,13.6551609 0.397583472,13.6551609 C0.527763139,13.6551609 0.684071063,13.6449539 0.806587669,13.6449539 L0.806587669,13.7221444 L0.769934248,13.7221444 C0.676500331,13.7221444 0.577157551,13.7349032 0.577157551,13.8691435 L0.577157551,15.2175621 C0.577157551,15.3512557 0.676500331,15.3639233 0.769934248,15.3639233 L0.806587669,15.3639233 L0.806587669,15.4416606 C0.681485935,15.4416606 0.52471638,15.4313624 0.394813692,15.4313624 C0.266942176,15.4313624 0.113034727,15.4416606 0.0112914703,15.4416606 L0.0112914703,15.3639233 Z" id="Fill-26" fill="#FFFFFF"></path>
                                        <path d="M0.985894835,15.452387 C0.831753557,15.452387 0.641051683,15.4420889 0.482396752,15.4420889 C0.326450013,15.4420889 0.138907696,15.452387 0.0137666442,15.452387 L0,15.452387 L0,15.4413598 L0,15.3640782 L0,15.3528687 L0.0137666442,15.3528687 L0.0582261342,15.3528687 C0.174114196,15.3507726 0.279169488,15.3432997 0.280297902,15.2174437 L0.280297902,13.8691162 C0.279169488,13.743169 0.174114196,13.7348758 0.0582261342,13.7333266 L0,13.7333266 L0,13.722117 L0,13.6336259 L0.0137666442,13.6336259 C0.138907696,13.6336259 0.330060936,13.6438329 0.485894834,13.6438329 C0.644436924,13.6438329 0.835138798,13.6336259 0.985894835,13.6336259 L1,13.6336259 L1,13.6451999 L1,13.7333266 L0.985894835,13.7333266 L0.941322506,13.7333266 C0.825547283,13.7348758 0.719927784,13.743169 0.719250736,13.8691162 L0.719250736,15.2174437 C0.719927784,15.3432997 0.825547283,15.3507726 0.941322506,15.3528687 L1,15.3528687 L1,15.3640782 L1,15.452387 L0.985894835,15.452387 Z M0.972128188,15.4305149 L0.972241034,15.3754699 L0.941322506,15.3754699 C0.827578428,15.3754699 0.69194313,15.3595215 0.691378924,15.2174437 L0.691378924,13.8691162 C0.69194313,13.726856 0.827578428,13.7109076 0.941322506,13.7109076 L0.972128188,13.7109076 L0.972128188,13.656136 C0.824870235,13.6562272 0.640487477,13.666343 0.485894834,13.666343 C0.33457459,13.666343 0.151320245,13.6567739 0.0279846537,13.656136 L0.0279846537,13.7109076 L0.0582261342,13.7109076 C0.17197021,13.7109076 0.307718349,13.726856 0.307718349,13.8691162 L0.307718349,15.2174437 C0.307718349,15.3595215 0.17197021,15.3754699 0.0582261342,15.3754699 L0.0279846537,15.3754699 L0.0279846537,15.4305149 C0.151320245,15.4294213 0.33130219,15.4200345 0.482396752,15.4200345 C0.637553601,15.4200345 0.821823518,15.4297858 0.972128188,15.4305149 Z" id="Fill-28" fill="#FFFFFF" fill-rule="nonzero"></path>
                                        <path d="M2.59785988,14.9342357 L2.60312246,14.929041 L2.60312246,13.9642054 C2.60312246,13.7530479 2.45429294,13.7221535 2.37618514,13.7221535 L2.31875836,13.7221535 L2.31875836,13.644963 C2.4413673,13.644963 2.56139111,13.65517 2.68381538,13.65517 C2.79054425,13.65517 2.89791939,13.644963 3.0044636,13.644963 L3.0044636,13.7221535 L2.96559435,13.7221535 C2.85581873,13.7221535 2.73330212,13.7427498 2.73330212,14.0490511 L2.73330212,15.2203963 C2.73330212,15.3101634 2.73597958,15.4002037 2.74872056,15.479946 L2.64974709,15.479946 L1.30714233,14.0025728 L1.30714233,15.0630991 C1.30714233,15.2868331 1.35108952,15.3639324 1.55208323,15.3639324 L1.59630738,15.3639324 L1.59630738,15.4414875 C1.48431593,15.4414875 1.3723245,15.4313716 1.25996375,15.4313716 C1.14307903,15.4313716 1.0229629,15.4414875 0.905524216,15.4414875 L0.905524216,15.3639324 L0.941992985,15.3639324 C1.12193637,15.3639324 1.17659337,15.2433621 1.17659337,15.0374904 L1.17659337,13.9534516 C1.17659337,13.8096421 1.05638491,13.7221535 0.939592514,13.7221535 L0.905524216,13.7221535 L0.905524216,13.644963 C1.00449769,13.644963 1.10624095,13.65517 1.2051221,13.65517 C1.28341455,13.65517 1.3592142,13.644963 1.437322,13.644963 L2.59785988,14.9342357 Z" id="Fill-30" fill="#FFFFFF"></path>
                                        <path d="M2.74879442,15.4910097 L2.64123463,15.4872731 L1.31820299,14.0315899 L1.31820299,15.0632267 C1.32134207,15.2869606 1.35577968,15.3503899 1.55206476,15.3528505 L1.60792199,15.3528505 L1.60792199,15.3638777 L1.60792199,15.4523688 L1.59628891,15.4523688 C1.48355887,15.4523688 1.37129045,15.4420707 1.26003761,15.4420707 C1.14333754,15.4420707 1.02359071,15.4523688 0.905321103,15.4523688 L0.893964999,15.4523688 L0.893964999,15.4413416 L0.893964999,15.3528505 L0.905321103,15.3528505 L0.942066854,15.3528505 C1.11434717,15.3519392 1.16355693,15.2426695 1.16558811,15.0374357 L1.16558811,13.9536703 C1.16503415,13.816787 1.05128851,13.7333083 0.939574045,13.7333083 L0.893964999,13.7333083 L0.893964999,13.721552 L0.893964999,13.6337899 L0.905321103,13.6337899 C1.00503319,13.6337899 1.10696109,13.6438147 1.20491898,13.6438147 C1.28265748,13.6438147 1.3579955,13.6337899 1.44588986,13.6377087 L2.59184022,14.9110329 L2.59184022,13.964333 C2.59045533,13.759646 2.45215097,13.7348576 2.37616667,13.7333083 L2.30719915,13.7333083 L2.30719915,13.721552 L2.30719915,13.6337899 L2.3187399,13.6337899 C2.44181047,13.6337899 2.56192659,13.6438147 2.68379692,13.6438147 C2.78997182,13.6438147 2.89679302,13.6337899 3.00453746,13.6337899 L3.01589356,13.6337899 L3.01589356,13.6449995 L3.01589356,13.7333083 L3.00453746,13.7333083 L2.96566821,13.7333083 C2.85801609,13.7361335 2.74759419,13.7456114 2.74454743,14.0489964 L2.74454743,15.2202505 C2.74454743,15.3101086 2.74722488,15.3996934 2.75987355,15.4779774 L2.76227403,15.4910097 L2.74879442,15.4910097 Z M2.64972863,15.4685907 L2.73605344,15.4685907 C2.72423571,15.3911268 2.72229686,15.305552 2.72229686,15.2202505 L2.72229686,14.0489964 C2.72229686,13.7402345 2.85330747,13.7108893 2.96566821,13.7108893 L2.99318136,13.7108893 L2.99318136,13.6561178 C2.89042252,13.6567557 2.7873867,13.6663248 2.68379692,13.6663248 C2.56451172,13.6663248 2.44827328,13.6567557 2.33037297,13.6561178 L2.33018832,13.7108893 L2.37616667,13.7108893 C2.45630565,13.7108893 2.61436777,13.7461582 2.61436777,13.964333 L2.61095171,14.936915 L2.60568912,14.9422919 L2.59682583,14.9502205 L1.43730354,13.6561178 C1.35993434,13.6561178 1.28441167,13.6663248 1.20491898,13.6663248 C1.10936157,13.6663248 1.011496,13.6567557 0.916861851,13.6561178 L0.916492548,13.7108893 L0.939574045,13.7108893 C1.061906,13.7108893 1.18774634,13.803117 1.18774634,13.9536703 L1.18774634,15.0374357 C1.18774634,15.2433986 1.12958096,15.3750872 0.942066854,15.3758163 L0.916861851,15.3750872 L0.916861851,15.4304967 C1.02996121,15.429403 1.14610732,15.4201074 1.26003761,15.4201074 C1.36888997,15.4201074 1.47746535,15.429403 1.58502515,15.4304967 L1.58502515,15.3758163 L1.55206476,15.3758163 C1.34691638,15.3750872 1.29604475,15.2869606 1.29576777,15.0632267 L1.29576777,13.9736286 L2.64972863,15.4685907 Z" id="Fill-32" fill="#FFFFFF" fill-rule="nonzero"></path>
                                        <path d="M3.39507645,13.7736168 C3.19925301,13.7736168 3.19186692,13.820004 3.15272069,14.0075578 L3.07442824,14.0075578 C3.08476876,13.9356531 3.09778673,13.8636572 3.10591142,13.7888363 C3.11625192,13.7167493 3.12142218,13.6449357 3.12142218,13.5704792 L3.18392689,13.5704792 C3.20497721,13.6476697 3.27006705,13.6449357 3.34078876,13.6449357 L4.68570167,13.6449357 C4.75642339,13.6449357 4.82142089,13.6425662 4.82677581,13.5651022 L4.88900353,13.5754005 C4.87894,13.6449357 4.86841483,13.7144709 4.86056712,13.7838238 C4.85558152,13.8534502 4.85558152,13.9230766 4.85558152,13.9922473 L4.77728907,14.0209545 C4.77184183,13.9257195 4.75882386,13.7736168 4.5842354,13.7736168 L4.15676599,13.7736168 L4.15676599,15.142814 C4.15676599,15.341395 4.24807641,15.3639962 4.37280884,15.3639962 L4.42257256,15.3639962 L4.42257256,15.4415512 C4.32092163,15.4415512 4.13830079,15.4313442 3.99768828,15.4313442 C3.84128804,15.4313442 3.65848254,15.4415512 3.55664696,15.4415512 L3.55664696,15.3639962 L3.60641068,15.3639962 C3.7502546,15.3639962 3.82273051,15.3513285 3.82273051,15.1481909 L3.82273051,13.7736168 L3.39507645,13.7736168 Z" id="Fill-34" fill="#FFFFFF"></path>
                                        <path d="M4.42283107,15.452387 C4.32025688,15.452387 4.13791302,15.44218 3.99766982,15.44218 C3.84145422,15.44218 3.65911037,15.452387 3.55672082,15.452387 L3.54582636,15.452387 L3.54582636,15.4415421 L3.54582636,15.3528687 L3.55672082,15.3528687 L3.60639221,15.3528687 C3.75023613,15.3494968 3.80793989,15.3478564 3.81117129,15.1481818 L3.81117129,13.7847261 L3.39505799,13.7847261 L3.39505799,13.7736989 L3.39505799,13.7621249 L3.83388349,13.7621249 L3.83388349,15.1481818 C3.83388349,15.3547826 3.74958984,15.3754699 3.60639221,15.3758345 L3.5679846,15.3758345 L3.5679846,15.4299681 C3.67083577,15.4294213 3.8463475,15.4201256 3.99766982,15.4201256 C4.13366602,15.4201256 4.3078852,15.4294213 4.41101334,15.4299681 L4.41101334,15.3758345 L4.37279038,15.3758345 C4.24685771,15.3754699 4.14548375,15.3450312 4.14548375,15.142896 L4.14548375,13.7621249 L4.58430926,13.7621249 C4.75935936,13.7626717 4.78216388,13.9094885 4.78788809,14.0050881 L4.84420696,13.9846741 C4.84420696,13.9176906 4.84457626,13.8502514 4.84928489,13.7824478 C4.85685561,13.7161933 4.86645752,13.6505768 4.87624408,13.5848693 L4.83645157,13.5783076 C4.82426454,13.6530375 4.75105002,13.6569563 4.68549855,13.6562272 L3.3407703,13.6562272 L3.32719838,13.6562272 C3.26598624,13.6562272 3.19895756,13.653402 3.17569141,13.5814973 L3.13257516,13.5814973 C3.13220586,13.6526729 3.12712793,13.7216613 3.11706439,13.7902853 C3.10949366,13.8609141 3.09758361,13.9289 3.0879817,13.996886 L3.14365428,13.996886 C3.17809188,13.8177166 3.20043478,13.759482 3.39505799,13.7621249 L3.39505799,13.7736989 L3.39505799,13.7847261 C3.20218897,13.7881892 3.20634364,13.8201772 3.16378135,14.010465 L3.16184251,14.0191227 L3.15270223,14.0191227 L3.06139181,14.0191227 L3.06286903,14.0058171 C3.07348652,13.9339125 3.08668913,13.8618254 3.09444452,13.7870955 C3.10515434,13.7156466 3.11013994,13.6442886 3.11013994,13.5704701 L3.11013994,13.5590783 L3.12140372,13.5590783 L3.19286404,13.5590783 L3.19480289,13.5671893 C3.21252948,13.6321678 3.26081598,13.6325323 3.32719838,13.6336259 L3.3407703,13.6336259 L4.68549855,13.6336259 C4.7580668,13.6325323 4.81106192,13.631621 4.81549356,13.5641819 L4.81650915,13.552061 L4.82832688,13.5544305 L4.90181838,13.5660045 L4.90015651,13.577214 C4.889816,13.6462024 4.87947549,13.7156466 4.87181243,13.7847261 C4.8667345,13.8534411 4.8667345,13.9227029 4.8667345,13.9923294 L4.8667345,14.0000757 L4.85934842,14.0031742 L4.76702241,14.0364382 L4.76628381,14.0213099 C4.75935936,13.924799 4.74901884,13.7847261 4.58430926,13.7847261 L4.16810363,13.7847261 L4.16810363,15.142896 C4.17059643,15.3368292 4.24851958,15.3504082 4.37279038,15.3528687 L4.43391019,15.3528687 L4.43391019,15.3638959 L4.43391019,15.452387 L4.42283107,15.452387 Z" id="Fill-36" fill="#FFFFFF"></path>
                                        <path d="M4.97232775,15.3639233 L5.00898117,15.3639233 C5.10278439,15.3639233 5.20185019,15.3512557 5.20185019,15.2175621 L5.20185019,13.8691435 C5.20185019,13.7349032 5.10278439,13.7221444 5.00898117,13.7221444 L4.97232775,13.7221444 L4.97232775,13.6449539 C5.13103615,13.6449539 5.40275158,13.6551609 5.62128723,13.6551609 C5.84074615,13.6551609 6.11144599,13.6449539 6.28871192,13.6449539 C6.28418794,13.7554083 6.28677307,13.9257378 6.29434381,14.0387438 L6.2158667,14.0594313 C6.20321804,13.8922004 6.17201185,13.7584157 5.8980806,13.7584157 L5.53597801,13.7584157 L5.53597801,14.4324427 L5.84582407,14.4324427 C6.00222433,14.4324427 6.03629262,14.3452275 6.0518034,14.2060659 L6.1299112,14.2060659 C6.12474093,14.3065867 6.12206348,14.4068341 6.12206348,14.5072638 C6.12206348,14.6051416 6.12474093,14.7028373 6.1299112,14.800533 L6.0518034,14.8158434 C6.03629262,14.6617358 6.02844492,14.5613062 5.84831688,14.5613062 L5.53597801,14.5613062 L5.53597801,15.1607856 C5.53597801,15.3281077 5.68665405,15.3281077 5.85348714,15.3281077 C6.16656462,15.3281077 6.30459199,15.3075113 6.38297677,15.0143333 L6.45582199,15.0319221 C6.42184602,15.1688054 6.39063983,15.3049596 6.367466,15.4416606 C6.20035593,15.4416606 5.9005734,15.4313624 5.66615767,15.4313624 C5.43109566,15.4313624 5.12097262,15.4416606 4.97232775,15.4416606 L4.97232775,15.3639233 Z" id="Fill-38" fill="#FFFFFF"></path>
                                        <path d="M6.36726289,15.452387 C6.19987584,15.452387 5.90000098,15.4419067 5.66595456,15.4419067 C5.4310772,15.4419067 5.1211388,15.452387 4.97230929,15.452387 L4.96123017,15.452387 L4.96123017,15.4415421 L4.96123017,15.3638959 L4.96123017,15.3528687 L4.97230929,15.3528687 L5.00896271,15.3528687 C5.10341221,15.3514106 5.18909074,15.3432997 5.19029098,15.2174437 L5.19029098,13.8691162 C5.18909074,13.7434424 5.10341221,13.7350581 5.00896271,13.7333266 L4.96123017,13.7333266 L4.96123017,13.7222082 L4.96123017,13.6338082 L4.97230929,13.6338082 C5.13147932,13.6338082 5.40273311,13.6438329 5.62126877,13.6438329 C5.84054303,13.6438329 6.11115055,13.6338082 6.28869345,13.6338082 L6.30032653,13.6338082 L6.29995723,13.6453822 C6.29801838,13.6842053 6.29718744,13.7299546 6.29718744,13.7783467 C6.29718744,13.8672935 6.29995723,13.9645335 6.30512748,14.0378963 L6.30540446,14.0472831 L6.29681814,14.0497438 L6.20523074,14.0733474 L6.20458447,14.060133 C6.18925835,13.8931755 6.16654615,13.7717851 5.89806213,13.7694156 L5.54676168,13.7694156 L5.54657703,14.4209325 L5.84580561,14.4209325 C5.99592769,14.4194744 6.02279456,14.3436509 6.04052115,14.2049449 L6.04135209,14.1946468 L6.0516926,14.1946468 L6.14143348,14.1946468 L6.1411565,14.2064031 C6.1361709,14.3066505 6.13303181,14.4068067 6.13303181,14.5072364 C6.13303181,14.6046587 6.1361709,14.7023543 6.1411565,14.8002322 L6.14143348,14.8092545 L6.13210855,14.8114417 L6.04135209,14.8292128 L6.04052115,14.8172743 C6.02260991,14.6600681 6.02140967,14.5739465 5.84829841,14.5720327 L5.54676168,14.5720327 L5.54676168,15.1608494 C5.54694633,15.3170531 5.68368115,15.3162328 5.853561,15.3170531 C6.16746941,15.3151393 6.29340208,15.300011 6.37187918,15.0111163 L6.37464897,15.0008181 L6.38545111,15.002732 L6.46909847,15.0239662 L6.46669799,15.0348111 C6.43272202,15.170783 6.40170049,15.3071195 6.37834201,15.4432737 L6.37631083,15.452387 L6.36726289,15.452387 Z M6.35766098,15.4299681 C6.38028085,15.300011 6.41010215,15.1698717 6.44213927,15.0403703 L6.39062136,15.0277026 C6.31251356,15.3156861 6.16146822,15.3412947 5.853561,15.3393809 C5.68931304,15.3393809 5.52497275,15.3393809 5.52414181,15.1608494 L5.52414181,14.5501605 L5.84829841,14.5501605 C6.03027296,14.5481556 6.04873817,14.656605 6.06166381,14.8030574 L6.11816733,14.791301 C6.11318172,14.6967951 6.11068892,14.6017423 6.11068892,14.5072364 C6.11068892,14.4104521 6.11318172,14.3139412 6.11816733,14.2169746 L6.06166381,14.2169746 C6.04716863,14.3513061 6.00460634,14.4452653 5.84580561,14.443716 L5.52414181,14.443716 L5.52414181,13.7468143 L5.89806213,13.7468143 C6.16931593,13.7449917 6.21427869,13.883242 6.22581945,14.0450048 L6.28204598,14.0302411 C6.27761434,13.957425 6.2746599,13.8642861 6.2746599,13.7783467 C6.2746599,13.7341467 6.27567549,13.6924985 6.27706038,13.6562272 C6.09988677,13.6567739 5.83574208,13.6662519 5.62126877,13.6662519 C5.40698011,13.6662519 5.14338937,13.6567739 4.98357306,13.6562272 L4.98357306,13.7109076 L5.00896271,13.7109076 C5.10184267,13.7109987 5.2127262,13.726856 5.21328016,13.8691162 L5.21328016,15.2174437 C5.2127262,15.3595215 5.10184267,15.3749232 5.00896271,15.3758345 L4.98357306,15.3758345 L4.98357306,15.4299681 C5.13554166,15.4297858 5.43680141,15.4201256 5.66595456,15.4201256 C5.89603096,15.4201256 6.18953532,15.4297858 6.35766098,15.4299681 Z" id="Fill-40" fill="#FFFFFF" fill-rule="nonzero"></path>
                                        <path d="M6.80775025,13.9176177 C6.80775025,13.7298817 6.70342187,13.7222264 6.62245196,13.7222264 L6.57545803,13.7222264 L6.57545803,13.6449448 C6.65892073,13.6449448 6.82049124,13.6551518 6.97966127,13.6551518 C7.13587687,13.6551518 7.26116326,13.6449448 7.39937529,13.6449448 C7.72759426,13.6449448 8.01999065,13.7323422 8.01999065,14.0981541 C8.01999065,14.3294522 7.86359042,14.4708922 7.65770345,14.5511812 L8.10336105,15.2094421 C8.17648327,15.3184383 8.2283705,15.348877 8.3563343,15.3640053 L8.3563343,15.4415603 C8.27019416,15.4415603 8.18673145,15.4313533 8.10086824,15.4313533 C8.01999065,15.4313533 7.93634333,15.4415603 7.85583505,15.4415603 C7.65511831,15.1817373 7.48265334,14.9035963 7.31332745,14.6072286 L7.14160108,14.6072286 L7.14160108,15.1583159 C7.14160108,15.3567146 7.23521965,15.3640053 7.35487415,15.3640053 L7.40205274,15.3640053 L7.40205274,15.4415603 C7.25313089,15.4415603 7.10245486,15.4313533 6.95353301,15.4313533 C6.82824663,15.4313533 6.70582234,15.4415603 6.57545803,15.4415603 L6.57545803,15.3640053 L6.62245196,15.3640053 C6.71920961,15.3640053 6.80775025,15.3207166 6.80775025,15.2252994 L6.80775025,13.9176177 Z M7.14160108,14.5145454 L7.26882632,14.5145454 C7.52992425,14.5145454 7.67044447,14.4169409 7.67044447,14.1131912 C7.67044447,13.8844449 7.52198422,13.7377192 7.28959967,13.7377192 C7.21121489,13.7377192 7.1778852,13.7455567 7.14160108,13.7480173 L7.14160108,14.5145454 Z" id="Fill-42" fill="#FFFFFF" fill-rule="nonzero"></path>
                                        <path d="M8.35638045,15.4524782 C8.26894779,15.4524782 8.186039,15.4420889 8.10036047,15.4420889 C8.0208678,15.4420889 7.9375897,15.4524782 7.84664862,15.4481949 C7.64657816,15.189101 7.4752211,14.9127827 7.30672614,14.6188756 L7.15263404,14.6188756 L7.15263404,15.1580242 C7.15540382,15.351684 7.23425022,15.3501347 7.35492031,15.3528687 L7.41336268,15.3528687 L7.41336268,15.3638959 L7.41336268,15.4524782 L7.40163727,15.4524782 C7.2526231,15.4524782 7.10120846,15.4420889 6.9533022,15.4420889 C6.82875442,15.4420889 6.70642246,15.4524782 6.57541186,15.4524782 L6.56414809,15.4524782 L6.56414809,15.441451 L6.56414809,15.3528687 L6.57541186,15.3528687 L6.62249812,15.3528687 C6.71648599,15.3521397 6.79551706,15.3120407 6.79597868,15.2252811 L6.79597868,13.9175083 C6.79403984,13.7350581 6.70346803,13.7359694 6.62249812,13.7333266 L6.56414809,13.7333266 L6.56414809,13.7222082 L6.56414809,13.6336259 L6.57541186,13.6336259 C6.65989015,13.6336259 6.82081438,13.6437418 6.97970744,13.6437418 C7.13546141,13.6437418 7.26047081,13.6336259 7.39942145,13.6336259 C7.72810202,13.634355 8.03056199,13.7238486 8.03148529,14.0976802 C8.03148529,14.3299808 7.87600828,14.4749749 7.67473758,14.5560842 L8.11273217,15.203409 C8.18557739,15.3101269 8.23100178,15.3368292 8.35795005,15.3528687 L8.36736724,15.3543269 L8.36736724,15.3638959 L8.36736724,15.4524782 L8.35638045,15.4524782 Z M7.14137027,14.5963655 L7.31946713,14.5963655 L7.32279086,14.6019246 C7.49257839,14.8976544 7.66384313,15.175522 7.85588121,15.4305149 C7.93546627,15.4305149 8.01911359,15.4200345 8.10036047,15.4200345 C8.18363857,15.4200345 8.26396216,15.4288745 8.34502435,15.4300592 L8.34502435,15.3737384 C8.22260011,15.3587925 8.16545032,15.3226123 8.09417462,15.2158032 L7.6403,14.5458772 L7.65322564,14.5406826 C7.85726611,14.4613048 8.00831148,14.3236926 8.0085884,14.0976802 C8.00831148,13.7406172 7.72708642,13.6577765 7.39942145,13.656136 C7.26194803,13.656136 7.13675397,13.666343 6.97970744,13.666343 C6.82653859,13.666343 6.67198486,13.6567739 6.58649098,13.656136 L6.58649098,13.7109076 L6.62249812,13.7109076 C6.70346803,13.7109987 6.81869088,13.7242131 6.81869088,13.9175083 L6.81869088,15.2252811 C6.81869088,15.3287182 6.72064067,15.3754699 6.62249812,15.3758345 L6.58649098,15.3758345 L6.58649098,15.4300592 C6.71205434,15.429877 6.83097024,15.4200345 6.9533022,15.4200345 C7.09908496,15.4200345 7.24616028,15.429877 7.39055815,15.4300592 L7.39055815,15.3758345 L7.35492031,15.3758345 C7.2359121,15.3754699 7.13001417,15.3611619 7.13001417,15.1580242 L7.13001417,14.5963655 L7.14137027,14.5963655 Z M7.14137027,14.5256455 L7.13001417,14.5256455 L7.13001417,13.7377921 L7.13998538,13.7366985 C7.17553089,13.7339645 7.21079942,13.726856 7.2895535,13.726856 C7.52710831,13.726856 7.68156973,13.8790498 7.68193903,14.1137198 C7.68120042,14.4209325 7.53190926,14.5254632 7.26887248,14.5256455 L7.14137027,14.5256455 Z M7.26887248,14.503591 C7.52710831,14.5013127 7.65710333,14.4129127 7.65959613,14.1137198 C7.65821124,13.8890745 7.5167678,13.7494572 7.2895535,13.748637 C7.21910876,13.748637 7.18596372,13.7548341 7.15263404,13.7578416 L7.15263404,14.503591 L7.26887248,14.503591 Z" id="Fill-44" fill="#FFFFFF" fill-rule="nonzero"></path>
                                        <path d="M10.1265747,14.9342357 L10.1312833,14.929041 L10.1312833,13.9642054 C10.1312833,13.7530479 9.98291538,13.7221535 9.9047153,13.7221535 L9.84756544,13.7221535 L9.84756544,13.644963 C9.96998976,13.644963 10.0896443,13.65517 10.2125302,13.65517 C10.319536,13.65517 10.4258955,13.644963 10.5335477,13.644963 L10.5335477,13.7221535 L10.4943091,13.7221535 C10.3848105,13.7221535 10.2621092,13.7427498 10.2621092,14.0490511 L10.2621092,15.2203963 C10.2621092,15.3101634 10.2646944,15.4002037 10.27762,15.479946 L10.1786465,15.479946 L8.83604177,14.0025728 L8.83604177,15.0630991 C8.83604177,15.2868331 8.88017363,15.3639324 9.08107495,15.3639324 L9.12529912,15.3639324 L9.12529912,15.4414875 C9.01330768,15.4414875 8.90113162,15.4313716 8.78923248,15.4313716 C8.67151687,15.4313716 8.55158536,15.4414875 8.43442367,15.4414875 L8.43442367,15.3639324 L8.47052309,15.3639324 C8.65065119,15.3639324 8.70558516,15.2433621 8.70558516,15.0374904 L8.70558516,13.9534516 C8.70558516,13.8096421 8.58556134,13.7221535 8.46839965,13.7221535 L8.43442367,13.7221535 L8.43442367,13.644963 C8.53312012,13.644963 8.63523268,13.65517 8.7342062,13.65517 C8.81194467,13.65517 8.8878367,13.644963 8.96612908,13.644963 L10.1265747,14.9342357 Z" id="Fill-46" fill="#FFFFFF"></path>
                                        <path d="M10.2776477,15.4910097 L10.1702725,15.4874554 L8.84696393,14.0315899 L8.84696393,15.0630444 C8.85019536,15.2869606 8.88444826,15.3503899 9.08110271,15.3528505 L9.13622129,15.3528505 L9.13622129,15.3638777 L9.13622129,15.4523688 L9.12504988,15.4523688 C9.01222752,15.4523688 8.90032838,15.4418885 8.78861393,15.4418885 C8.67219084,15.4418885 8.55170534,15.4523688 8.43445134,15.4523688 L8.42254133,15.4523688 L8.42254133,15.4415239 L8.42254133,15.3528505 L8.43445134,15.3528505 L8.47055084,15.3528505 C8.6426465,15.3523037 8.69213322,15.2426695 8.69379513,15.0370712 L8.69379513,13.953488 C8.69351813,13.8164225 8.57977247,13.7333083 8.46833502,13.7333083 L8.42254133,13.7333083 L8.42254133,13.7220988 L8.42254133,13.6336077 L8.43445134,13.6336077 C8.53379417,13.6336077 8.63581435,13.6438147 8.73423388,13.6438147 C8.81086444,13.6438147 8.88638716,13.6336077 8.9739122,13.6370708 L10.1200472,14.9110329 L10.1200472,13.9641507 C10.1194009,13.759646 9.98054262,13.7344019 9.90474298,13.7333083 L9.83586779,13.7333083 L9.83586779,13.7220988 L9.83586779,13.6336077 L9.8473162,13.6336077 C9.97047905,13.6336077 10.0905952,13.6438147 10.2124656,13.6438147 C10.3186405,13.6438147 10.4256463,13.6336077 10.5331138,13.6336077 L10.5445622,13.6336077 L10.5445622,13.6451817 L10.5445622,13.7333083 L10.5331138,13.7333083 L10.4943369,13.7333083 C10.3866847,13.7359512 10.2758935,13.7456114 10.2732161,14.0489964 L10.2732161,15.2202505 C10.2732161,15.3101086 10.2755242,15.3991466 10.2887268,15.478342 L10.2901117,15.4910097 L10.2776477,15.4910097 Z M10.1786742,15.4685907 L10.2643527,15.4685907 C10.2529966,15.391309 10.2505962,15.305552 10.2505962,15.2202505 L10.2505962,14.0489964 C10.2506885,13.7402345 10.3826223,13.7116184 10.4943369,13.7108893 L10.521573,13.7108893 L10.521573,13.6561178 C10.4191834,13.6567557 10.3160554,13.6663248 10.2124656,13.6663248 C10.0928111,13.6663248 9.97657259,13.6567557 9.85848768,13.6561178 L9.85848768,13.7108893 L9.90474298,13.7108893 C9.98506657,13.7116184 10.1430364,13.7461582 10.1430364,13.9641507 L10.1393434,14.936915 L10.1343577,14.9422919 L10.1263254,14.9505851 L8.96606445,13.6561178 C8.88860298,13.6561178 8.81308033,13.6663248 8.73423388,13.6663248 C8.63747625,13.6663248 8.54025694,13.6567557 8.44516114,13.6561178 L8.44516114,13.7108893 L8.46833502,13.7108893 C8.59085157,13.7116184 8.71632263,13.8027524 8.71632263,13.953488 L8.71632263,15.0370712 C8.71632263,15.2435809 8.65760332,15.3750872 8.47055084,15.3758163 L8.44516114,15.3754517 L8.44516114,15.4299499 C8.55807588,15.429403 8.67412967,15.4201074 8.78861393,15.4201074 C8.89792787,15.4201074 9.00631859,15.429403 9.11406309,15.4299499 L9.11406309,15.3758163 L9.08110271,15.3758163 C8.87567736,15.3754517 8.82452874,15.2869606 8.82397474,15.0630444 L8.82397474,13.9740843 L10.1786742,15.4685907 Z" id="Fill-48" fill="#FFFFFF" fill-rule="nonzero"></path>
                                        <path d="M10.9528186,15.0734337 C10.9264133,15.1608312 10.8948378,15.2280881 10.8948378,15.2740196 C10.8948378,15.3513013 11.0047058,15.3639688 11.0905689,15.3639688 L11.119467,15.3639688 L11.119467,15.4415239 C11.014954,15.4360558 10.9084097,15.431408 10.8036197,15.431408 C10.7098165,15.431408 10.6164749,15.4360558 10.5223024,15.4415239 L10.5223024,15.3639688 L10.5380901,15.3639688 C10.6396487,15.3639688 10.7258812,15.3048229 10.7643812,15.196738 L11.1819717,14.0158237 C11.215763,13.9204064 11.2630339,13.7917252 11.2787293,13.6963079 C11.3618227,13.6681475 11.4662434,13.6167479 11.5157302,13.5857624 C11.5237626,13.5830283 11.5284711,13.5803854 11.5365959,13.5803854 C11.5443513,13.5803854 11.5492445,13.5803854 11.5549688,13.5884053 C11.5627241,13.6089104 11.5702025,13.6322407 11.5786042,13.6526547 L12.0582378,14.9987038 C12.0895363,15.0887442 12.1205578,15.1839792 12.1543491,15.2614431 C12.18574,15.3335301 12.240674,15.3639688 12.3268141,15.3639688 L12.3423249,15.3639688 L12.3423249,15.4415239 C12.2249785,15.4360558 12.1074475,15.431408 11.9827151,15.431408 C11.8548436,15.431408 11.7242023,15.4360558 11.5913452,15.4415239 L11.5913452,15.3639688 L11.6200586,15.3639688 C11.6797935,15.3639688 11.7819061,15.3539442 11.7819061,15.2895124 C11.7819061,15.2560662 11.7584553,15.1866221 11.7291879,15.1040547 L11.6277217,14.8057731 L11.035912,14.8057731 L10.9528186,15.0734337 Z M11.333294,13.9331652 L11.3279391,13.9331652 L11.0855833,14.6616903 L11.5727876,14.6616903 L11.333294,13.9331652 Z" id="Fill-50" fill="#FFFFFF" fill-rule="nonzero"></path>
                                        <path d="M12.3415863,15.452387 C12.2244246,15.4474658 12.1069859,15.4419067 11.9827151,15.4419067 C11.8548436,15.4419067 11.7250332,15.4474658 11.5917145,15.452387 L11.5798045,15.4529339 L11.5798045,15.4415421 L11.5798045,15.352413 L11.5913452,15.352413 L11.6199662,15.352413 C11.6804398,15.352413 11.769996,15.3390164 11.7700884,15.2895306 C11.7707346,15.2603677 11.7472838,15.1896478 11.7185704,15.1076271 L11.6194123,14.8166363 L11.0442212,14.8166363 L10.963159,15.0766416 C10.9367538,15.1644037 10.9054553,15.2323896 10.9057323,15.2744024 C10.9065632,15.3372848 11.0040595,15.352413 11.0905689,15.352413 L11.1305461,15.352413 L11.1305461,15.3641694 L11.1305461,15.4529339 L11.1187284,15.452387 C11.0144,15.4474658 10.9080404,15.4419067 10.803989,15.4419067 C10.7106474,15.4419067 10.6164749,15.4474658 10.523041,15.452387 L10.5110386,15.4529339 L10.5110386,15.4415421 L10.5110386,15.352413 L10.5223024,15.352413 L10.5378131,15.352413 C10.6350325,15.3522308 10.71591,15.2977326 10.753579,15.1932931 L11.1710772,14.011832 C11.2051455,13.9164147 11.2522318,13.7881892 11.2747593,13.6855723 C11.3564679,13.6582321 11.4612579,13.6063768 11.5114832,13.5752091 C11.5186846,13.5727484 11.525886,13.5691942 11.5365959,13.5691942 C11.5429664,13.5689208 11.5569999,13.5706523 11.5654016,13.5843224 C11.5727876,13.6052833 11.5809124,13.628249 11.5889447,13.6491187 L12.0691322,14.9951678 C12.0997845,15.0853905 12.130806,15.1804432 12.1648743,15.2566312 C12.1951573,15.3253463 12.2430745,15.3522308 12.3268141,15.352413 L12.353404,15.352413 L12.353404,15.3641694 L12.353404,15.4529339 L12.3415863,15.452387 Z M11.602609,15.4294213 C11.7316807,15.4250469 11.8581673,15.4200345 11.9827151,15.4200345 C12.1038468,15.4200345 12.2173155,15.4250469 12.3306918,15.4294213 L12.3306918,15.3755611 L12.3268141,15.3755611 C12.2376272,15.376199 12.1760458,15.3415682 12.1439163,15.2656535 C12.1100327,15.1877339 12.0781802,15.0923166 12.0475279,15.002094 L11.5676174,13.6562272 C11.559585,13.635722 11.5520143,13.6124828 11.5451822,13.5941649 C11.5429664,13.5916132 11.5436127,13.5916132 11.5413045,13.5916132 L11.5365959,13.5916132 C11.531241,13.5916132 11.5281018,13.5932536 11.5213621,13.5949851 C11.471229,13.6270643 11.3665314,13.6777348 11.2893468,13.6980577 C11.2733745,13.7952977 11.2262882,13.9239788 11.1923122,14.019305 L10.7752757,15.2005838 C10.7353908,15.3123141 10.643988,15.3758345 10.5378131,15.3755611 L10.5337508,15.3755611 L10.5337508,15.4294213 C10.6230301,15.4250469 10.7134172,15.4200345 10.803989,15.4200345 C10.9047167,15.4200345 11.0077525,15.4250469 11.10728,15.4294213 L11.10728,15.3755611 L11.0905689,15.3755611 C11.0055367,15.3746498 10.8869901,15.3651718 10.8837587,15.2744024 C10.8839434,15.2230028 10.9157958,15.1571129 10.9414625,15.0702622 L10.9528186,15.0734519 L10.9414625,15.0698977 L11.027418,14.7947642 L11.6353847,14.7947642 L11.7400824,15.1005187 C11.7689804,15.1832683 11.7929852,15.2516189 11.7929852,15.2895306 C11.7891998,15.3685438 11.6790549,15.3741029 11.6199662,15.3755611 L11.602609,15.3755611 L11.602609,15.4294213 Z M11.0697033,14.6726446 L11.3193528,13.9218827 L11.3279391,13.9218827 L11.333294,13.9218827 L11.333294,13.9331834 L11.3305242,13.9339125 L11.333294,13.9331834 L11.333294,13.9218827 L11.341234,13.9218827 L11.5888524,14.6726446 L11.0697033,14.6726446 Z M11.1008171,14.6503168 L11.5572769,14.6503168 L11.3303396,13.960797 L11.1008171,14.6503168 Z" id="Fill-52" fill="#FFFFFF" fill-rule="nonzero"></path>
                                        <path d="M12.4570399,13.7736168 C12.2614012,13.7736168 12.2536458,13.820004 12.2144996,14.0075578 L12.1360224,14.0075578 C12.1463629,13.9356531 12.1595656,13.8636572 12.1676903,13.7888363 C12.1780308,13.7167493 12.182924,13.6449357 12.182924,13.5704792 L12.2457057,13.5704792 C12.2664791,13.6476697 12.3319382,13.6449357 12.402106,13.6449357 L13.7476652,13.6449357 C13.8177406,13.6449357 13.8828304,13.6425662 13.8881854,13.5651022 L13.9506901,13.5754005 C13.9406265,13.6449357 13.930286,13.7144709 13.9224383,13.7838238 C13.9166218,13.8534502 13.9166218,13.9230766 13.9166218,13.9922473 L13.8385139,14.0209545 C13.8338053,13.9257195 13.8207874,13.7736168 13.6459219,13.7736168 L13.2182679,13.7736168 L13.2182679,15.142814 C13.2182679,15.341395 13.3096706,15.3639962 13.4345877,15.3639962 L13.4842591,15.3639962 L13.4842591,15.4415512 C13.3825159,15.4415512 13.2002643,15.4313442 13.0591901,15.4313442 C12.9030669,15.4313442 12.7201691,15.4415512 12.6185181,15.4415512 L12.6185181,15.3639962 L12.6680049,15.3639962 C12.8116641,15.3639962 12.8846017,15.3513285 12.8846017,15.1481909 L12.8846017,13.7736168 L12.4570399,13.7736168 Z" id="Fill-54" fill="#FFFFFF"></path>
                                        <path d="M13.4842591,15.452387 C13.3818696,15.452387 13.1992487,15.44218 13.0591901,15.44218 C12.9033439,15.44218 12.7207231,15.452387 12.6185181,15.452387 L12.6069774,15.452387 L12.6069774,15.4415421 L12.6069774,15.3528687 L12.6185181,15.3528687 L12.6680049,15.3528687 C12.8116641,15.3494968 12.8693679,15.3478564 12.8729686,15.1481818 L12.8726917,13.7847261 L12.4570399,13.7847261 L12.4570399,13.7736989 L12.4570399,13.7621249 L12.8956808,13.7621249 L12.8956808,15.1481818 C12.8956808,15.3547826 12.8110178,15.3749232 12.6680049,15.3754699 L12.6295973,15.3754699 L12.6295973,15.430606 C12.7327254,15.4294213 12.9078679,15.4201256 13.0591901,15.4201256 C13.1954634,15.4201256 13.3696826,15.4294213 13.4728106,15.430606 L13.4727183,15.3754699 L13.4343107,15.3754699 C13.3090243,15.3749232 13.2072811,15.3452135 13.2069118,15.142896 L13.2069118,13.7621249 L13.6459219,13.7621249 C13.8208797,13.7626717 13.8438689,13.9094885 13.8488545,14.0050881 L13.905635,13.9846741 C13.905635,13.9176906 13.9059119,13.8502514 13.9110822,13.7827211 C13.9182836,13.7165579 13.9279779,13.6505768 13.9375798,13.5850515 L13.8981565,13.5783076 C13.8862465,13.6530375 13.8125703,13.6572296 13.7476652,13.6562272 L12.402106,13.6562272 L12.3888111,13.6562272 C12.3274142,13.6567739 12.2607549,13.653402 12.2371194,13.5811327 L12.1944648,13.5811327 C12.1938185,13.6524907 12.1888329,13.7216613 12.1785847,13.7902853 C12.1715679,13.8610964 12.1589193,13.9292646 12.1490404,13.996886 L12.20499,13.996886 C12.2393352,13.8177166 12.2620475,13.7592997 12.4570399,13.7621249 L12.4570399,13.7736989 L12.4570399,13.7847261 C12.263617,13.7879158 12.2680486,13.8201772 12.225394,14.010465 L12.2234552,14.0191227 L12.2144996,14.0191227 L12.1228198,14.0191227 L12.1243893,14.006364 C12.1353761,13.9339125 12.1481171,13.8618254 12.1559649,13.7874601 C12.1665824,13.7156466 12.1715679,13.6442886 12.1715679,13.5704701 L12.1715679,13.5590783 L12.182924,13.5590783 L12.2540151,13.5590783 L12.2563232,13.5671893 C12.2745115,13.6321678 12.3221517,13.6325323 12.3888111,13.6336259 C12.3935197,13.6336259 12.3974897,13.6338082 12.402106,13.6338082 L13.7476652,13.6338082 C13.8195872,13.6325323 13.8723976,13.631621 13.8768293,13.5643641 L13.8775679,13.552061 L13.8898473,13.5544305 L13.963708,13.5660045 L13.9617692,13.577214 C13.9511517,13.6462024 13.9411805,13.7156466 13.9333327,13.7847261 C13.9279779,13.8534411 13.9279779,13.9230675 13.9279779,13.9923294 L13.9279779,14.0000757 L13.9204994,14.0031742 L13.8280811,14.0364382 L13.8277118,14.0213099 C13.8208797,13.924799 13.8106315,13.7847261 13.6459219,13.7847261 L13.2295317,13.7847261 L13.2295317,15.142896 C13.2323014,15.3368292 13.3102246,15.3504082 13.4343107,15.3528687 L13.4952459,15.3528687 L13.4952459,15.3638959 L13.4952459,15.452387 L13.4842591,15.452387 Z" id="Fill-56" fill="#FFFFFF"></path>
                                        <path d="M14.046866,15.3639233 L14.0833348,15.3639233 C14.1775073,15.3639233 14.2761116,15.3512557 14.2761116,15.2175621 L14.2761116,13.8691435 C14.2761116,13.7349032 14.1775073,13.7221444 14.0833348,13.7221444 L14.046866,13.7221444 L14.046866,13.6449539 C14.148794,13.6449539 14.3049172,13.6551609 14.4325118,13.6551609 C14.5632454,13.6551609 14.719738,13.6449539 14.8423469,13.6449539 L14.8423469,13.7221444 L14.8058781,13.7221444 C14.7117979,13.7221444 14.6125475,13.7349032 14.6125475,13.8691435 L14.6125475,15.2175621 C14.6125475,15.3512557 14.7117979,15.3639233 14.8058781,15.3639233 L14.8423469,15.3639233 L14.8423469,15.4416606 C14.7171529,15.4416606 14.560568,15.4313624 14.4303883,15.4313624 C14.3024245,15.4313624 14.148794,15.4416606 14.046866,15.4416606 L14.046866,15.3639233 Z" id="Fill-58" fill="#FFFFFF"></path>
                                        <path d="M15.0222596,15.452387 C14.8681267,15.452387 14.6772957,15.4419067 14.5183074,15.4419067 C14.362368,15.4419067 14.1741339,15.452387 14.0493597,15.452387 L14.0355838,15.452387 L14.0355838,15.4415421 L14.0355838,15.3638959 L14.0355838,15.3528687 L14.0493597,15.3528687 L14.0939623,15.3528687 C14.2091384,15.3514106 14.3149425,15.3432997 14.3155071,15.2174437 L14.3155071,13.8691162 C14.3149425,13.7434424 14.2091384,13.7348758 14.0939623,13.7333266 L14.0355838,13.7333266 L14.0355838,13.7222082 L14.0355838,13.6338082 L14.0493597,13.6338082 C14.1741339,13.6338082 14.3656426,13.6438329 14.5210174,13.6438329 C14.6800057,13.6438329 14.8712884,13.6338082 15.0222596,13.6338082 L15.0355838,13.6338082 L15.0355838,13.6450177 L15.0355838,13.7333266 L15.0222596,13.7333266 L14.977657,13.7333266 C14.861013,13.7348758 14.7563382,13.7434424 14.7549832,13.8691162 L14.7549832,15.2174437 C14.7563382,15.3432997 14.861013,15.3514106 14.977657,15.3528687 L15.0355838,15.3528687 L15.0355838,15.3638959 L15.0355838,15.452387 L15.0222596,15.452387 Z M15.0079191,15.4299681 L15.0079191,15.3754699 L14.977657,15.3754699 C14.8633843,15.3754699 14.72777,15.3595215 14.72777,15.2174437 L14.72777,13.8691162 C14.72777,13.726856 14.8633843,13.7109987 14.977657,13.7109076 L15.0079191,13.7109076 L15.0079191,13.6562272 C14.8606742,13.6567739 14.6762794,13.6662519 14.5210174,13.6662519 C14.3697076,13.6662519 14.1870066,13.6567739 14.0633616,13.6562272 L14.0633616,13.7109076 L14.0939623,13.7109076 C14.2074447,13.7109987 14.3433977,13.726856 14.3438494,13.8691162 L14.3438494,15.2174437 C14.3433977,15.3595215 14.2074447,15.3754699 14.0939623,15.3754699 L14.0633616,15.3754699 L14.0633616,15.4299681 C14.186442,15.4288745 14.3666588,15.4201256 14.5183074,15.4201256 C14.6728919,15.4201256 14.8573995,15.4294213 15.0079191,15.4299681 Z" id="Fill-60" fill="#FFFFFF" fill-rule="nonzero"></path>
                                        <path d="M15.8820301,13.606386 C16.4379249,13.606386 16.8809051,13.9464981 16.8809051,14.4945779 C16.8809051,15.0864021 16.4507583,15.4800098 15.8955097,15.4800098 C15.3424769,15.4800098 14.92027,15.1093678 14.92027,14.5560933 C14.92027,14.0209545 15.3398918,13.606386 15.8820301,13.606386 M15.9214533,15.3667302 C16.4274921,15.3667302 16.5155711,14.9263707 16.5155711,14.5511721 C16.5155711,14.1748798 16.3100534,13.7195744 15.8770444,13.7195744 C15.4207693,13.7195744 15.2852347,14.1211108 15.2852347,14.4657796 C15.2852347,14.9263707 15.4989694,15.3667302 15.9214533,15.3667302" id="Fill-62" fill="#FFFFFF" fill-rule="nonzero"></path>
                                        <g id="Group-66" transform="translate(14.864459, 13.577196)">
                                            <g id="Fill-64-Clipped">
                                                <mask id="mask-4" fill="white">
                                                    <use xlink:href="#path-3"></use>
                                                </mask>
                                                <g id="path-3"></g>
                                                <path d="M0.044224156,0.978888457 C0.0454243941,0.4374614 0.469662384,0.0188829637 1.01761722,0.0179716237 L1.01761722,0.029181105 L1.01761722,0.0402083183 C0.481480112,0.0402083183 0.0669363531,0.449399953 0.0663823971,0.978888457 C0.0673056571,1.52605696 0.483418958,1.89104861 1.03100449,1.89141314 C1.58080585,1.89104861 2.00476686,1.50327346 2.00559779,0.91682621 C2.00513616,0.375672552 1.56889579,0.0409373902 1.01761722,0.0402083183 L1.01761722,0.029181105 L1.01761722,0.0179716237 C1.57738978,0.0185184277 2.02655579,0.362002452 2.02757138,0.91682621 C2.02701742,1.51512088 1.59151566,1.91282963 1.03100449,1.91383211 C0.473263098,1.91282963 0.0454243941,1.53845118 0.044224156,0.978888457 M0.409373503,0.888574674 C0.410112111,0.542265493 0.547123901,0.130977777 1.01263162,0.130977777 C1.45533481,0.131889116 1.66177575,0.595670014 1.66269901,0.973967223 C1.66177575,1.34916588 1.57240418,1.80027915 1.05704042,1.80027915 L1.05704042,1.78961647 L1.05704042,1.77831586 C1.55292339,1.77786019 1.63878658,1.34916588 1.63998682,0.973967223 C1.63998682,0.600955785 1.43640798,0.154308079 1.01263162,0.153579007 C0.565312124,0.154125811 0.43300896,0.545728584 0.431993374,0.888574674 C0.432362678,1.34688753 0.644158532,1.77749565 1.05704042,1.77831586 L1.05704042,1.78961647 L1.05704042,1.80027915 C0.624216115,1.79991461 0.410112111,1.35180876 0.409373503,0.888574674" id="Fill-64" fill="#1F1410" fill-rule="nonzero" mask="url(#mask-4)"></path>
                                            </g>
                                        </g>
                                        <path d="M18.6379243,14.9342357 L18.6432793,14.929041 L18.6432793,13.9642054 C18.6432793,13.7530479 18.4942651,13.7221535 18.4159726,13.7221535 L18.3594691,13.7221535 L18.3594691,13.644963 C18.4816164,13.644963 18.6016402,13.65517 18.7237875,13.65517 C18.8311627,13.65517 18.9379839,13.644963 19.0449897,13.644963 L19.0449897,13.7221535 L19.0055665,13.7221535 C18.8963448,13.7221535 18.773459,13.7427498 18.773459,14.0490511 L18.773459,15.2203963 C18.773459,15.3101634 18.7760441,15.4002037 18.789339,15.479946 L18.6902732,15.479946 L17.3472991,14.0025728 L17.3472991,15.0630991 C17.3472991,15.2868331 17.3915233,15.3639324 17.5923324,15.3639324 L17.6367411,15.3639324 L17.6367411,15.4414875 C17.5245651,15.4414875 17.4126659,15.4313716 17.3005822,15.4313716 C17.1831435,15.4313716 17.062935,15.4414875 16.9454964,15.4414875 L16.9454964,15.3639324 L16.9823344,15.3639324 C17.1625548,15.3639324 17.2167502,15.2433621 17.2167502,15.0374904 L17.2167502,13.9534516 C17.2167502,13.8096421 17.0972803,13.7221535 16.979657,13.7221535 L16.9454964,13.7221535 L16.9454964,13.644963 C17.0448391,13.644963 17.1464901,13.65517 17.2454635,13.65517 C17.3235714,13.65517 17.399094,13.644963 17.4775711,13.644963 L18.6379243,14.9342357 Z" id="Fill-67" fill="#FFFFFF"></path>
                                        <path d="M18.7893943,15.4910097 L18.6814653,15.4872731 L17.3584336,14.0315899 L17.3584336,15.0632267 C17.3614804,15.2869606 17.3961026,15.3500254 17.5918338,15.3523948 L17.6480603,15.3523948 L17.6480603,15.36406 L17.6480603,15.4523688 L17.6367966,15.4523688 C17.5239741,15.4523688 17.4119827,15.4420707 17.3005452,15.4420707 C17.1835682,15.4420707 17.0638213,15.4523688 16.9454594,15.4523688 L16.9346573,15.4523688 L16.9346573,15.4413416 L16.9346573,15.3523948 L16.9454594,15.3523948 L16.9823898,15.3523948 C17.1542085,15.3519392 17.2036952,15.2426695 17.2056341,15.0374357 L17.2056341,13.953488 C17.2053571,13.8164225 17.0917038,13.7333083 16.97962,13.7333083 L16.9346573,13.7333083 L16.9346573,13.7220988 L16.9346573,13.6337899 L16.9454594,13.6337899 C17.0452639,13.6337899 17.1470994,13.6438147 17.245519,13.6438147 C17.3227035,13.6438147 17.3978569,13.6337899 17.4862128,13.6377087 L18.6317939,14.9110329 L18.6317939,13.964333 C18.6311476,13.759646 18.4922893,13.7348576 18.416028,13.7333083 L18.3474298,13.7333083 L18.3474298,13.7220988 L18.3474298,13.6337899 L18.3592475,13.6337899 C18.4818564,13.6337899 18.6021573,13.6438147 18.723566,13.6438147 C18.8303871,13.6438147 18.9367467,13.6337899 19.0449528,13.6337899 L19.0561242,13.6337899 L19.0561242,13.6449995 L19.0561242,13.7333083 L19.0449528,13.7333083 L19.0055296,13.7333083 C18.8982468,13.7361335 18.7874555,13.7457937 18.7850551,14.0489964 L18.7850551,15.2202505 C18.7850551,15.3101086 18.7870862,15.3996934 18.7998272,15.478342 L18.802043,15.4910097 L18.7893943,15.4910097 Z M18.6903286,15.4685907 L18.7757301,15.4685907 C18.7645587,15.3911268 18.7623429,15.305552 18.7623429,15.2202505 L18.7623429,14.0489964 C18.7623429,13.7395966 18.8939074,13.7116184 19.0055296,13.7108893 L19.0337813,13.7108893 L19.0337813,13.6561178 C18.9306531,13.6567557 18.827802,13.6663248 18.723566,13.6663248 C18.6047424,13.6663248 18.4883193,13.6567557 18.3703267,13.6561178 L18.3703267,13.7108893 L18.416028,13.7108893 C18.4966287,13.7116184 18.6540445,13.746705 18.6540445,13.964333 L18.6512747,14.936915 L18.6462891,14.9422919 L18.6378874,14.9505851 L17.4775342,13.6561178 C17.4005343,13.6561178 17.3244576,13.6663248 17.245519,13.6663248 C17.1494076,13.6663248 17.051542,13.6567557 16.9566308,13.6561178 L16.9566308,13.7108893 L16.97962,13.7108893 C17.1020444,13.7116184 17.227977,13.8027524 17.227977,13.953488 L17.227977,15.0374357 C17.227977,15.2433986 17.1698116,15.3750872 16.9823898,15.3758163 L16.9566308,15.3754517 L16.9566308,15.4299499 C17.0699149,15.429403 17.1858764,15.4201074 17.3005452,15.4201074 C17.4093053,15.4201074 17.5172344,15.429403 17.6255328,15.4299499 L17.6255328,15.3758163 L17.5918338,15.3758163 C17.3871471,15.3754517 17.3359061,15.2869606 17.3359061,15.0632267 L17.3359061,13.9736286 L18.6903286,15.4685907 Z" id="Fill-69" fill="#FFFFFF" fill-rule="nonzero"></path>
                                        <path d="M19.4638543,15.0734337 C19.43828,15.1608312 19.4066122,15.2280881 19.4066122,15.2740196 C19.4066122,15.3513013 19.5165725,15.3639688 19.6020663,15.3639688 L19.631149,15.3639688 L19.631149,15.4415239 C19.5267283,15.4360558 19.4197225,15.431408 19.3153941,15.431408 C19.2214062,15.431408 19.1277877,15.4360558 19.0342614,15.4415239 L19.0342614,15.3639688 L19.0490336,15.3639688 C19.1511462,15.3639688 19.2375633,15.3048229 19.2759709,15.196738 L19.6937461,14.0158237 C19.7276297,13.9204064 19.774716,13.7917252 19.7899498,13.6963079 C19.8734125,13.6681475 19.9776486,13.6167479 20.0275969,13.5857624 C20.0350753,13.5830283 20.0403379,13.5803854 20.0481856,13.5803854 C20.0559409,13.5803854 20.0610189,13.5803854 20.0661891,13.5884053 C20.0741292,13.6089104 20.0821616,13.6322407 20.0900092,13.6526547 L20.5694582,14.9987038 C20.6006644,15.0887442 20.6318706,15.1839792 20.6662159,15.2614431 C20.6974221,15.3335301 20.7524483,15.3639688 20.8382192,15.3639688 L20.8540993,15.3639688 L20.8540993,15.4415239 C20.7366606,15.4360558 20.6192219,15.431408 20.4939355,15.431408 C20.3664334,15.431408 20.2357921,15.4360558 20.1028426,15.4415239 L20.1028426,15.3639688 L20.131556,15.3639688 C20.1911986,15.3639688 20.2934958,15.3539442 20.2934958,15.2895124 C20.2934958,15.2560662 20.2699526,15.1866221 20.2407776,15.1040547 L20.1395883,14.8057731 L19.547594,14.8057731 L19.4638543,15.0734337 Z M19.8449761,13.9331652 L19.8397135,13.9331652 L19.5968038,14.6616903 L20.0849314,14.6616903 L19.8449761,13.9331652 Z" id="Fill-71" fill="#FFFFFF" fill-rule="nonzero"></path>
                                        <path d="M20.8529821,15.452387 C20.7355435,15.4478303 20.6184741,15.4420889 20.4939263,15.4420889 C20.3668857,15.4420889 20.2362445,15.4478303 20.103295,15.452387 L20.0917542,15.4529339 L20.0917542,15.4413598 L20.0917542,15.3529598 L20.1029257,15.3529598 L20.1313621,15.3529598 C20.1921126,15.3529598 20.2817612,15.3390164 20.2820382,15.2895306 C20.2825921,15.2603677 20.2591413,15.1900123 20.2299662,15.1076271 L20.1308082,14.8166363 L19.5553401,14.8166363 L19.4748318,15.0766416 C19.4486113,15.1647682 19.4174974,15.2323896 19.4180514,15.2740379 C19.4180514,15.3372848 19.5157323,15.3529598 19.6020571,15.3529598 L19.6418496,15.3529598 L19.6418496,15.363987 L19.6418496,15.4529339 L19.6302165,15.452387 C19.5260728,15.4478303 19.4192516,15.4420889 19.3153849,15.4420889 C19.221951,15.4420889 19.1282401,15.4478303 19.0342522,15.452387 L19.0228961,15.4529339 L19.0228961,15.4413598 L19.0228961,15.3529598 L19.0342522,15.3529598 L19.0491166,15.3529598 C19.1464283,15.352413 19.2277674,15.2973682 19.2657135,15.1932931 L19.6828424,14.011832 C19.7163567,13.9164147 19.7632583,13.7881892 19.7863398,13.6858457 C19.868233,13.6578676 19.9729306,13.6063768 20.0236177,13.5752091 C20.0303574,13.5727484 20.0375589,13.5695587 20.0481764,13.5695587 C20.0551008,13.5689208 20.0685804,13.5706523 20.0767974,13.5848693 C20.0845528,13.6050098 20.0922159,13.628249 20.1008022,13.6491187 L20.5803435,14.9951678 C20.6115496,15.0853905 20.6427558,15.1804432 20.6765471,15.2569958 C20.7071994,15.3253463 20.7545626,15.3522308 20.837933,15.3529598 L20.8648922,15.3529598 L20.8648922,15.363987 L20.8648922,15.4529339 L20.8529821,15.452387 Z M20.1140048,15.4297858 C20.2429842,15.4250469 20.3699325,15.4200345 20.4939263,15.4200345 C20.615335,15.4200345 20.728896,15.4250469 20.842457,15.4294213 L20.8420877,15.3755611 L20.837933,15.3755611 C20.749577,15.3758345 20.6879956,15.3415682 20.6555891,15.2656535 C20.6211515,15.1877339 20.59013,15.0923166 20.5590161,15.0024585 L20.0791055,13.6562272 C20.0713502,13.635722 20.0633178,13.6124828 20.0570397,13.5947117 C20.0549161,13.5916132 20.0551008,13.5916132 20.0532543,13.5916132 L20.0481764,13.5916132 C20.0427291,13.5916132 20.039867,13.5934358 20.0334042,13.5951674 C19.9826249,13.6266997 19.8783888,13.6782816 19.801112,13.6980577 C19.7850473,13.7952977 19.737684,13.9237966 19.703985,14.019305 L19.2863945,15.2005838 C19.246879,15.3123141 19.1558455,15.3758345 19.0491166,15.3755611 L19.045239,15.3755611 L19.045239,15.4294213 C19.1350722,15.4250469 19.2247207,15.4200345 19.3153849,15.4200345 C19.4164818,15.4200345 19.519333,15.4250469 19.6196914,15.4294213 L19.6196914,15.3755611 L19.6020571,15.3755611 C19.5172095,15.3746498 19.398386,15.3655364 19.3951545,15.2740379 C19.3956162,15.2230028 19.4280226,15.1574775 19.4532276,15.0702622 L19.463845,15.0734519 L19.4532276,15.0698977 L19.5391831,14.7947642 L20.1471498,14.7947642 L20.2515705,15.1005187 C20.2804686,15.1834507 20.304104,15.2516189 20.304104,15.2895306 C20.300134,15.3685438 20.19082,15.3741029 20.1313621,15.3755611 L20.1140048,15.3755611 L20.1140048,15.4297858 Z M19.5813761,14.6723712 L19.8313949,13.9218827 L19.8394272,13.9218827 L19.8449669,13.9218827 L19.8449669,13.9331834 L19.8421047,13.9339125 L19.8449669,13.9331834 L19.8449669,13.9218827 L19.8530915,13.9218827 L20.0996943,14.6723712 L19.5813761,14.6723712 Z M19.6127669,14.6503168 L20.0688574,14.6503168 L19.84192,13.9611615 L19.6127669,14.6503168 Z" id="Fill-73" fill="#FFFFFF" fill-rule="nonzero"></path>
                                        <path d="M21.5110265,15.1891283 C21.5110265,15.2923831 21.5835024,15.3230952 21.6669651,15.3334846 C21.7739709,15.3413221 21.8912249,15.3413221 22.0115258,15.3281077 C22.1207475,15.31544 22.2147353,15.2537423 22.2614523,15.1891283 C22.3030913,15.1323518 22.3265421,15.0604471 22.3423299,15.0038529 L22.4180372,15.0038529 C22.3893238,15.1504875 22.3526703,15.295026 22.3213719,15.4416606 C22.0924033,15.4416606 21.862327,15.4313624 21.6333585,15.4313624 C21.4034667,15.4313624 21.1744059,15.4416606 20.9448834,15.4416606 L20.9448834,15.3639233 L20.9808906,15.3639233 C21.0750631,15.3639233 21.176991,15.3512557 21.176991,15.1915889 L21.176991,13.8691435 C21.176991,13.7349032 21.0750631,13.7221444 20.9808906,13.7221444 L20.9448834,13.7221444 L20.9448834,13.6449539 C21.0828185,13.6449539 21.21863,13.6551609 21.3566574,13.6551609 C21.4899761,13.6551609 21.6201558,13.6449539 21.7531976,13.6449539 L21.7531976,13.7221444 L21.6876461,13.7221444 C21.5888573,13.7221444 21.5110265,13.7250606 21.5110265,13.8611237 L21.5110265,15.1891283 Z" id="Fill-75" fill="#FFFFFF"></path>
                                        <path d="M22.3213626,15.452387 C22.0915632,15.452387 21.8620407,15.44218 21.6333493,15.44218 C21.4038268,15.44218 21.1743967,15.452387 20.9443202,15.452387 L20.9335181,15.452387 L20.9335181,15.4413598 L20.9335181,15.3528687 L20.9443202,15.3528687 L20.9808813,15.3528687 C21.0754232,15.3507726 21.1646101,15.3443933 21.165718,15.1917438 L21.165718,13.8687516 C21.1646101,13.7434424 21.0757925,13.7348758 20.9808813,13.7333266 L20.9335181,13.7333266 L20.9335181,13.7222082 L20.9335181,13.6338082 L20.9443202,13.6338082 C21.0831786,13.6338082 21.2188978,13.6438329 21.3566482,13.6438329 C21.489136,13.6438329 21.6193157,13.6338082 21.7531884,13.6338082 L21.7638059,13.6338082 L21.7638059,13.6450177 L21.7638059,13.7333266 L21.7531884,13.7333266 L21.6876369,13.7333266 C21.5867246,13.7359694 21.5237582,13.7315038 21.5217271,13.8610964 L21.5217271,15.189101 C21.5224657,15.2850651 21.5860783,15.310856 21.6676022,15.3222477 C21.7135805,15.3255285 21.761867,15.3272601 21.8120924,15.3272601 C21.8759819,15.3272601 21.9423644,15.3242526 22.0095777,15.3172354 C22.1158449,15.3048411 22.20734,15.2443282 22.2523028,15.1827216 C22.2923722,15.12795 22.3154537,15.0572301 22.3310569,15.0011826 L22.3334573,14.9926161 L22.3420437,14.9926161 L22.4315998,14.9926161 L22.4291994,15.006195 C22.3997474,15.1533765 22.3639249,15.2971858 22.3323494,15.4436382 L22.3300413,15.452387 L22.3213626,15.452387 Z M22.3119453,15.4299681 C22.3420437,15.2905331 22.3762966,15.1540143 22.4042714,15.0148527 L22.3507222,15.0148527 C22.3345652,15.070809 22.3113914,15.1397975 22.2703987,15.1961182 C22.2217428,15.2626461 22.1252621,15.3256197 22.0120705,15.3393809 C21.9437493,15.3461248 21.8762589,15.3498613 21.8120924,15.3498613 C21.7616824,15.3498613 21.7126572,15.3476741 21.6656633,15.3443933 C21.5806311,15.3349154 21.4985532,15.2990997 21.4988302,15.189101 L21.4988302,13.8610964 C21.4988302,13.718016 21.59051,13.7109076 21.6876369,13.7109076 L21.7415553,13.7109076 L21.7415553,13.6562272 C21.6131298,13.6567739 21.4864585,13.666343 21.3566482,13.666343 C21.2215753,13.666343 21.0895491,13.6567739 20.9559533,13.6562272 L20.9559533,13.7109076 L20.9808813,13.7109076 C21.0739459,13.7109076 21.1878763,13.726856 21.1878763,13.8687516 L21.1878763,15.1917438 C21.1878763,15.3582456 21.0745922,15.3754699 20.9808813,15.3754699 L20.9559533,15.3754699 L20.9559533,15.4299681 C21.1813211,15.4297858 21.4067812,15.4201256 21.6333493,15.4201256 C21.8599173,15.4201256 22.0862083,15.4297858 22.3119453,15.4299681 Z" id="Fill-77" fill="#FFFFFF" fill-rule="nonzero"></path>
                                    </g>
                                    <g id="Group-81" transform="translate(21.299248, 12.759190)" fill="#FEFEFE" fill-rule="nonzero">
                                        <g id="Fill-79-Clipped">
                                            <path d="M1.17059655,0.847698304 C1.37556028,0.847698304 1.52862074,1.0042722 1.52862074,1.20438537 C1.52862074,1.40390046 1.37556028,1.559039 1.17059655,1.559039 C0.965873669,1.559039 0.812211085,1.40390046 0.812211085,1.20438537 C0.812211085,1.0042722 0.965873669,0.847698304 1.17059655,0.847698304 Z M1.17059655,1.4927732 C1.33088252,1.4927732 1.45371625,1.35725125 1.45371625,1.20438537 C1.45371625,1.05116064 1.33256847,0.91432295 1.17059655,0.91432295 C1.00958803,0.91432295 0.886633872,1.05116064 0.886633872,1.20438537 C0.886633872,1.35725125 1.00958803,1.4927732 1.17059655,1.4927732 Z M0.992367218,1.39205874 L0.992367218,1.37447557 C1.03632242,1.36837529 1.04439091,1.36969104 1.04439091,1.34253881 L1.04439091,1.07926978 C1.04439091,1.04230925 1.04053731,1.02963024 0.993812321,1.03154405 L0.993812321,1.01360205 L1.17721994,1.01360205 C1.24032275,1.01360205 1.29812686,1.04326616 1.29812686,1.10773776 C1.29812686,1.1608461 1.26296269,1.19984006 1.21358835,1.21527018 L1.27235586,1.29672689 C1.29981281,1.3335678 1.33088252,1.36837529 1.35135481,1.38057586 L1.35135481,1.39205874 L1.28138775,1.39205874 C1.24802997,1.39205874 1.21864621,1.32196531 1.15289404,1.22830804 L1.11303329,1.22830804 L1.11303329,1.34624682 C1.11303329,1.36969104 1.12134263,1.36837529 1.16553869,1.37447557 L1.16553869,1.39205874 L0.992367218,1.39205874 Z M1.11303329,1.20438537 L1.15542297,1.20438537 C1.20154583,1.20438537 1.22322237,1.16957788 1.22322237,1.11383805 C1.22322237,1.0570217 1.18986458,1.03716588 1.15301447,1.03716588 L1.11303329,1.03716588 L1.11303329,1.20438537 Z" id="Fill-79"></path>
                                        </g>
                                    </g>
                                </g>
                            </g>
                        </g>
                    </g>
                </g>
            </g>
        </g>
    </g>
</svg>