<?xml version="1.0" encoding="UTF-8"?>
<svg width="32px" height="32px" viewBox="0 0 32 32" version="1.1" xmlns="http://www.w3.org/2000/svg" xmlns:xlink="http://www.w3.org/1999/xlink">
    <!-- Generator: Sketch 55 (78076) - https://sketchapp.com -->
    <title>bandeiras-Visa</title>
    <desc>Created with Sketch.</desc>
    <defs>
        <polygon id="path-1" points="0.0523499522 0.0319380301 23.5047444 0.0319380301 23.5047444 8.01533578 0.0523499522 8.01533578"></polygon>
    </defs>
    <g id="Organisms" stroke="none" stroke-width="1" fill="none" fill-rule="evenodd" opacity="0.8">
        <g id="4.-Organisms/2.-Footer/1.-Desktop-(+)-1366" transform="translate(-695.000000, -182.000000)">
            <g id="4.-Organisms-/-Footer-/-1366">
                <g id="--Payments" transform="translate(695.000000, 104.000000)">
                    <g id="--Credit-Card" transform="translate(0.000000, 44.000000)">
                        <g id="--Badge" transform="translate(0.000000, 34.000000)">
                            <g id="bandeiras-Visa">
                                <circle id="--Bound" fill="#879395" cx="16" cy="16" r="16"></circle>
                                <g id="Logo-/-Visa-2" transform="translate(3.000000, 12.000000)">
                                    <g id="Logo-/-Visa" transform="translate(0.000000, 0.000000)">
                                        <g id="Group-3" transform="translate(1.780822, 0.000000)">
                                            <g id="Fill-1-Clipped">
                                                <mask id="mask-2" fill="white">
                                                    <use xlink:href="#path-1"></use>
                                                </mask>
                                                <g id="path-1"></g>
                                                <path d="M20.3701493,2.25993713 L20.5084322,2.92670737 C20.5084322,2.92670737 20.9068186,4.77208428 20.989953,5.15858201 L19.2685505,5.15858201 C19.4407638,4.7147438 20.0945895,2.99673145 20.0945895,2.99673145 C20.081877,3.01778272 20.2646994,2.54937002 20.3701493,2.25993713 Z M20.2236353,0.174804784 C19.7270241,0.174804784 19.3547943,0.311153572 19.1356635,0.816736291 L16.0574973,7.90352625 L18.2352699,7.90352625 C18.2352699,7.90352625 18.5914033,6.94961319 18.6719768,6.74077405 C18.909582,6.74077405 21.024798,6.74517808 21.326606,6.74517808 C21.3908087,7.01479284 21.5791185,7.90343811 21.5791185,7.90343811 L23.5047444,7.90343811 L21.8256865,0.174804784 L20.2237267,0.174804784 L20.2236353,0.174804784 Z M5.17265817,0.1742763 L3.14286285,5.44537248 L2.92647574,4.37431223 C2.42099323,3.0610303 1.32661949,1.68327335 0.0523499522,1.12493035 L1.90910874,7.89357309 L4.10407529,7.89260422 L7.36808201,0.174364381 L5.17265817,0.174364381 L5.17265817,0.1742763 Z M8.20948584,0.166789448 L6.9120777,7.90097185 L8.98494921,7.90097185 L10.283089,0.166701367 L8.20976022,0.166701367 L8.20948584,0.166789448 Z M14.6488775,0.0319380301 C12.5976813,0.0319380301 11.1567772,1.08221126 11.1440647,2.5839857 C11.1310778,3.69653192 12.17451,4.31688367 12.959302,4.68664609 C13.7688789,5.06459999 14.039317,5.30761441 14.0367562,5.6456678 C14.0286166,6.1640222 13.3887838,6.40025441 12.7943137,6.40025441 C11.9654394,6.40025441 11.5235195,6.28372375 10.8442688,5.99596439 L10.5749281,5.87273961 L10.2848267,7.60352364 C10.7697314,7.8189688 11.6653692,8.00552356 12.5964008,8.01538858 C14.7731675,8.01538858 16.1894697,6.97718241 16.2062978,5.37402719 C16.2148032,4.49163561 15.6610315,3.82380841 14.4634943,3.27242377 C13.7406187,2.91393567 13.2935771,2.67629418 13.3002535,2.31304974 C13.3008022,1.99199591 13.6753184,1.64804111 14.4882791,1.64804111 C15.1673469,1.63703103 15.655727,1.7871204 16.0402119,1.9452251 L16.2251379,2.03418652 L16.5072825,0.357395894 C16.097464,0.201493209 15.4509549,0.0319380301 14.648786,0.0319380301 L14.6488775,0.0319380301 Z" id="Fill-1" fill="#FFFFFF" fill-rule="nonzero" mask="url(#mask-2)"></path>
                                            </g>
                                        </g>
                                        <path d="M3.27513965,0.445296431 L0.0189664431,0.445296431 L0,0.572107022 C2.53161946,1.18232529 4.20182403,2.68088911 4.89726028,4.45296431 L4.18962496,1.06600532 C4.06799039,0.600221878 3.71368299,0.461661795 3.27513965,0.445296431" id="Fill-4" fill="#D8DCDE"></path>
                                    </g>
                                </g>
                            </g>
                        </g>
                    </g>
                </g>
            </g>
        </g>
    </g>
</svg>