<?xml version="1.0" encoding="UTF-8"?>
<svg width="32px" height="32px" viewBox="0 0 32 32" version="1.1" xmlns="http://www.w3.org/2000/svg" xmlns:xlink="http://www.w3.org/1999/xlink">
    <!-- Generator: Sketch 55 (78076) - https://sketchapp.com -->
    <title>bandeiras-Hipercard</title>
    <desc>Created with Sketch.</desc>
    <g id="Organisms" stroke="none" stroke-width="1" fill="none" fill-rule="evenodd" opacity="0.8">
        <g id="4.-Organisms/2.-Footer/1.-Desktop-(+)-1366" transform="translate(-791.000000, -230.000000)">
            <g id="4.-Organisms-/-Footer-/-1366">
                <g id="--Payments" transform="translate(695.000000, 104.000000)">
                    <g id="--Credit-Card" transform="translate(0.000000, 44.000000)">
                        <g id="--Badge" transform="translate(0.000000, 34.000000)">
                            <g id="bandeiras-Hipercard" transform="translate(96.000000, 48.000000)">
                                <circle id="--Bound" fill="#879395" cx="16" cy="16" r="16"></circle>
                                <path d="M22.4601924,17.6189336 C22.0804707,18.0073089 21.0145619,18.1176278 21.1236146,17.189267 C21.2141703,16.4182862 22.0177271,16.2543719 22.888552,16.3657335 C22.8238123,16.7874756 22.749558,17.3230122 22.4601924,17.6189336 Z M21.260679,14.6112672 C21.2244168,14.8239804 21.1687261,15.0164649 21.1236146,15.2199327 C21.5584282,15.1060686 22.9123719,14.7568298 23.0428492,15.3631317 C23.0861643,15.5645836 23.0114442,15.7786175 22.9571507,15.9360669 C21.7327529,15.8149038 20.734844,16.0274084 20.4724255,16.9385992 C20.2966371,17.548933 20.4921202,18.1495347 20.8665855,18.3172028 C21.5877706,18.6399567 22.464983,18.2702112 22.7686538,17.7622023 C22.7371157,17.9380729 22.707241,18.1156814 22.7172214,18.3350679 L23.3513107,18.3350679 C23.3579643,17.7006822 23.4463244,17.1871816 23.5398076,16.6163318 C23.6193848,16.1302198 23.7691577,15.6489737 23.7453377,15.2199327 C23.6909111,14.2373509 22.1328346,14.5849909 21.260679,14.6112672 Z M27.6181397,17.9232664 C27.1220462,17.9343886 26.8753968,17.6136506 26.8640857,17.0818678 C26.844391,16.1505179 27.2354238,15.1158006 28.0293329,15.0229992 C28.3990076,14.979831 28.6666824,15.0696432 28.9376176,15.1662678 C28.6889056,16.2123854 28.7786628,17.8972681 27.6181397,17.9232664 Z M29.2631124,13 C29.1999696,13.5784963 29.1155352,14.1348176 29.0061498,14.6649321 C27.1986959,14.0672499 26.0902705,15.4565587 26.1100982,17.171402 C26.1140239,17.5029842 26.16865,17.8318554 26.3671938,18.0664654 C26.7093227,18.4707594 27.6890006,18.567523 28.1836302,18.2276686 C28.2793756,18.1619083 28.3771838,18.042205 28.4406592,17.9591356 C28.4883657,17.8965729 28.5640172,17.7329367 28.5776571,17.7799978 C28.5517081,17.9617772 28.5128509,18.1301403 28.5091914,18.3350679 L29.1774803,18.3350679 C29.3062943,16.4048005 29.704513,14.7560651 30,13 L29.2631124,13 Z M10.3965268,17.6368683 C10.0023668,18.0730693 9.03313499,18.0663959 8.95715072,17.3324661 C8.92408223,17.0131183 9.03792558,16.6782689 9.09421511,16.3478684 C9.15117012,16.0134361 9.1921563,15.692559 9.24844592,15.3989315 C9.63675073,14.903574 10.7777123,14.8437919 10.8934851,15.6675339 C10.9939547,16.382695 10.7230196,17.2756035 10.3965268,17.6368683 Z M10.9791837,14.6112672 C10.3555405,14.3665081 9.59543185,14.6586759 9.26594487,14.9365932 C9.26707597,14.9488277 9.2580936,14.950496 9.24844592,14.9513997 C9.25403491,14.9464642 9.26008969,14.9415287 9.26594487,14.9365932 C9.26587837,14.9355505 9.26581186,14.9346468 9.26554567,14.9335346 C9.27113475,14.8139703 9.31138904,14.730762 9.31697811,14.6112672 L8.68295537,14.6112672 C8.41874038,16.4477602 8.10542175,18.2328822 7.77473718,20 L8.5115583,20 C8.61821567,19.3118105 8.68867745,18.5857357 8.83718609,17.941201 C9.00545597,18.6191025 10.1042336,18.4895282 10.5679239,18.2276686 C11.5245803,17.6871966 12.262466,15.1148969 10.9791837,14.6112672 Z M14.4748589,15.9002671 L12.7441876,15.9002671 C12.7989468,15.4845728 13.1569112,15.0276567 13.7208714,15.0051341 C14.2516967,14.9839323 14.631751,15.2087409 14.4748589,15.9002671 Z M13.7723038,14.5396677 C13.2398818,14.5824884 12.7898314,14.7425794 12.4699922,15.0946683 C12.0777617,15.5264203 11.7600517,16.4810574 11.8530692,17.3504007 C11.9858754,18.5906713 13.4639754,18.5461822 14.6462559,18.2455337 C14.6663498,18.0278851 14.7167842,17.8417959 14.7490542,17.6368683 C14.2620763,17.8272674 13.4164021,18.0930198 12.9155181,17.7622023 C12.5373268,17.5123685 12.5351311,16.8797208 12.6584891,16.3299338 C13.4530635,16.3035184 14.27891,16.3085929 15.074682,16.3299338 C15.1251165,15.9402377 15.2695663,15.5153676 15.1431477,15.130468 C14.9764081,14.6223895 14.3796457,14.4907993 13.7723038,14.5396677 Z M7.29494515,14.6112672 C7.27498431,14.6142564 7.27631504,14.6395595 7.27777882,14.6649321 C7.11543067,15.9334949 6.89572837,17.142206 6.66092238,18.3350679 L7.39774347,18.3350679 C7.57479611,17.0579549 7.77766477,15.8078134 8.03176628,14.6112672 L7.29494515,14.6112672 Z M26.5214246,14.6291324 C25.870169,14.2889999 25.3280991,14.8598497 25.1163146,15.201998 C25.1765964,15.0264054 25.1800562,14.7913088 25.2362127,14.6112672 L24.5850901,14.6112672 C24.4095014,15.8899095 24.1977833,17.1308752 23.9510009,18.3350679 L24.7049883,18.3350679 C24.7098454,17.8415178 24.8025303,17.4764298 24.8763188,16.9923336 C25.0339429,15.9588675 25.2652225,14.8254402 26.4186263,15.1662678 C26.4568846,14.9914398 26.4727867,14.7931856 26.5214246,14.6291324 Z M18.2447959,17.4578 C18.1768625,17.2744913 18.1592305,16.9717575 18.1761971,16.7416658 C18.2143223,16.2243419 18.3947018,15.5945441 18.6731555,15.3094668 C19.0574016,14.9159475 19.8159801,14.9810822 20.4210596,15.201998 C20.4397562,14.9889373 20.4807425,14.7989553 20.5067581,14.5934021 C19.5144383,14.4240658 18.5726859,14.5293796 18.0733989,15.0767336 C17.584691,15.6125483 17.264253,16.8441295 17.490742,17.6189336 C17.7558884,18.5256755 18.9444899,18.5749611 19.9070015,18.2276686 C19.9495846,18.0454026 19.9720738,17.842213 20.0097998,17.6547334 C19.4839648,17.9402278 18.4784708,18.0885709 18.2447959,17.4578 Z M17.8335361,14.6112672 C17.1802178,14.3355743 16.6665589,14.8014578 16.4284261,15.2378673 C16.4823869,15.0437144 16.5046765,14.8163338 16.5483243,14.6112672 L15.8971351,14.6112672 C15.7379807,15.9011013 15.5033078,17.1120369 15.2802787,18.3350679 L16.0171663,18.3350679 C16.1204304,17.6090626 16.1650096,16.6305127 16.3940934,15.9360669 C16.5772009,15.3811359 17.0563941,14.9083705 17.7478376,15.1662678 C17.7575518,14.9615488 17.8136418,14.8052811 17.8335361,14.6112672 Z M5.95836739,13.1073993 C5.85310723,13.8209615 5.73453985,14.5206209 5.61563979,15.2199327 C4.85227078,15.2283439 4.07286657,15.2593472 3.33657776,15.201998 C3.47563827,14.5179098 3.57537593,13.7925997 3.71357147,13.1073993 L2.89105184,13.1073993 C2.59656294,14.8526897 2.32875501,16.6257162 2,18.3350679 L2.83961942,18.3350679 C2.97136095,17.4581476 3.09451933,16.5723294 3.26797901,15.7391335 C3.9839743,15.7207122 4.84195768,15.6885967 5.52994125,15.7570681 C5.38815276,16.6233528 5.21668916,17.4587037 5.08441533,18.3350679 L5.92410128,18.3350679 C6.19383875,16.5640572 6.47814763,14.8082007 6.81515312,13.1073993 L5.95836739,13.1073993 Z M8.04893253,13.895133 C8.19584437,13.7894716 8.38500659,13.3078779 8.16889717,13.1073993 C8.10043156,13.0439329 7.98585632,13.0255117 7.8261696,13.0537344 C7.67799365,13.0798717 7.59276086,13.1324243 7.53487443,13.2148681 C7.44172385,13.3472924 7.35649107,13.7467204 7.50060832,13.895133 C7.64093302,14.0396528 7.95544932,13.9623532 8.04893253,13.895133 Z" id="Fill-4" fill="#FEFEFE" fill-rule="nonzero"></path>
                            </g>
                        </g>
                    </g>
                </g>
            </g>
        </g>
    </g>
</svg>