<?xml version="1.0" encoding="UTF-8"?>
<svg width="32px" height="32px" viewBox="0 0 32 32" version="1.1" xmlns="http://www.w3.org/2000/svg" xmlns:xlink="http://www.w3.org/1999/xlink">
    <!-- Generator: Sketch 55 (78076) - https://sketchapp.com -->
    <title>bandeiras-Amex</title>
    <desc>Created with Sketch.</desc>
    <defs>
        <circle id="path-1" cx="16" cy="16" r="16"></circle>
    </defs>
    <g id="Organisms" stroke="none" stroke-width="1" fill="none" fill-rule="evenodd" opacity="0.8">
        <g id="4.-Organisms/2.-Footer/1.-Desktop-(+)-1366" transform="translate(-791.000000, -182.000000)">
            <g id="4.-Organisms-/-Footer-/-1366">
                <g id="--Payments" transform="translate(695.000000, 104.000000)">
                    <g id="--Credit-Card" transform="translate(0.000000, 44.000000)">
                        <g id="--Badge" transform="translate(0.000000, 34.000000)">
                            <g id="bandeiras-Amex" transform="translate(96.000000, 0.000000)">
                                <mask id="mask-2" fill="white">
                                    <use xlink:href="#path-1"></use>
                                </mask>
                                <use id="Mask" fill="#879395" xlink:href="#path-1"></use>
                                <g id="Page-1" mask="url(#mask-2)">
                                    <g id="Group" transform="translate(-0.000000, 0.000000)">
                                        <polygon id="Fill-1" fill="#FFFFFF" points="0 23.3719231 31.3866646 23.3719231 31.3866646 8.17829732 0 8.17829732"></polygon>
                                        <path d="M31.3932655,0 L0,0 L0,13.2168452 L1.07184342,10.7813348 L3.36597931,10.7813348 L3.68193646,11.383362 L3.68193646,10.7813348 L6.36106779,10.7813348 L6.96593943,12.0812948 L7.55638834,10.7813348 L16.1021134,10.7813348 C16.5005065,10.7813348 16.8440012,10.8498739 17.1049185,11.0689111 L17.1049185,10.7813348 L19.4540942,10.7813348 L19.4540942,11.0689111 C19.839019,10.8498739 20.3474561,10.7813348 20.9243307,10.7813348 L24.3178829,10.7813348 L24.6338047,11.383362 L24.6338047,10.7813348 L27.1339243,10.7813348 L27.5053807,11.383362 L27.5053807,10.7813348 L29.9505313,10.7813348 L29.9505313,15.9126355 L27.4778432,15.9126355 L26.9969435,15.1323223 L26.9969435,15.9126355 L23.9189242,15.9126355 L23.5759598,15.0776597 L22.8201089,15.0776597 L22.4766495,15.9126355 L20.8688667,15.9126355 C20.2374473,15.9126355 19.7700513,15.7616809 19.4540942,15.5977279 L19.4540942,15.9126355 L15.6346821,15.9126355 L15.6346821,14.7354207 C15.6346821,14.5715029 15.6071799,14.5441716 15.497666,14.5441716 L15.373694,14.5441716 L15.373694,15.9126355 L7.99582258,15.9126355 L7.99582258,15.2555241 L7.73483449,15.9126355 L6.18212675,15.9126355 L5.92113865,15.2828203 L5.92113865,15.9126355 L2.94004873,15.9126355 L2.62409158,15.0776597 L1.8687002,15.0776597 L1.52478131,15.9126355 L0,15.9126355 L0,31.4001599 L31.3932655,31.4001599 L31.3932655,22.000779 C31.0633452,22.151277 30.5824455,22.2332359 30.1155091,22.2332359 L27.8213379,22.2332359 L27.8213379,21.918785 C27.5598902,22.1239808 27.0789552,22.2332359 26.6394857,22.2332359 L19.4270162,22.2332359 L19.4270162,21.0569696 C19.4270162,20.8925249 19.3991252,20.8925249 19.2616495,20.8925249 L19.138632,20.8925249 L19.138632,22.2332359 L16.7614946,22.2332359 L16.7614946,20.8378973 C16.3629955,21.0291816 15.9231371,21.0291816 15.5246734,21.0291816 L15.2636852,21.0291816 L15.2636852,22.2332359 L12.3651372,22.2332359 L11.6782539,21.4399245 L10.9223676,22.2332359 L6.26505754,22.2332359 L6.26505754,17.0890073 L11.0048389,17.0890073 L11.6782539,17.8827754 L12.4201417,17.0890073 L15.6071799,17.0890073 C15.9785656,17.0890073 16.5830131,17.1435997 16.8440012,17.4034582 L16.8440012,17.0890073 L19.6880043,17.0890073 C19.9759997,17.0890073 20.5259023,17.1435997 20.8968285,17.4034582 L20.8968285,17.0890073 L25.1832124,17.0890073 L25.1832124,17.4034582 C25.4306615,17.1982272 25.8701311,17.0890073 26.2685594,17.0890073 L28.6591652,17.0890073 L28.6591652,17.4034582 C28.9206481,17.2260153 29.2910794,17.0890073 29.7720851,17.0890073 L31.3932655,17.0890073 L31.3932655,0 Z M1.62128646,13.5864154 L2.23966175,12.1359223 L2.84361428,13.5864154 L1.62128646,13.5864154 Z M16.1565876,12.9982647 C16.0196068,13.0802236 15.8956702,13.0802236 15.7166938,13.0802236 L14.6318063,13.0802236 L14.6318063,12.2730357 L15.7166938,12.2730357 C15.8685922,12.2730357 16.0466142,12.2730357 16.1565876,12.3276632 C16.2665611,12.3962375 16.3215654,12.5054926 16.3215654,12.6694455 C16.3215654,12.8204353 16.2665611,12.9570569 16.1565876,12.9982647 Z M23.7954118,13.5864154 L23.1910351,12.1359223 L22.5865877,13.5864154 L23.7954118,13.5864154 Z M9.52060388,11.5065989 L8.07875335,11.5065989 L6.99294672,13.9967719 L5.83909161,11.5065989 L4.42431909,11.5065989 L4.42431909,14.9678776 L2.91254653,11.5065989 L1.60774746,11.5065989 L0.0275021993,15.1735301 L0.975373625,15.1735301 L1.30532932,14.3663423 L3.16003097,14.3663423 L3.48949176,15.1735301 L5.28922437,15.1735301 L5.28922437,12.3003319 L6.58097934,15.1735301 L7.33640604,15.1735301 L8.62819641,12.3003319 L8.62819641,15.1735301 L9.52060388,15.1735301 L9.52060388,11.5065989 Z M13.1344918,14.4209697 L11.0733469,14.4209697 L11.0733469,13.682321 L13.107025,13.682321 L13.107025,12.9297607 L11.0733469,12.9297607 L11.0733469,12.2730357 L13.1344918,12.2730357 L13.1344918,11.5065989 L10.1804799,11.5065989 L10.1804799,15.1735301 L13.1344918,15.1735301 L13.1344918,14.4209697 Z M16.8440012,11.6710085 C16.5550513,11.5065989 16.2395538,11.5065989 15.7861563,11.5065989 L13.7664061,11.5065989 L13.7664061,15.1735301 L14.6318063,15.1735301 L14.6318063,13.8462388 L15.5796424,13.8462388 C15.8956702,13.8462388 16.1021134,13.873535 16.2395538,13.9967719 C16.3905684,14.1884777 16.3629955,14.5029286 16.3629955,14.7080893 L16.3629955,15.1735301 L17.2694369,15.1735301 L17.2694369,14.448266 C17.2694369,14.133815 17.2419346,13.9694054 17.1049185,13.791541 C17.0224474,13.682321 16.871468,13.5590841 16.6790234,13.4771603 C16.9259422,13.3673783 17.3114325,13.0802236 17.3114325,12.5054926 C17.3114325,12.0812948 17.1324561,11.8488379 16.8440012,11.6710085 Z M17.8198344,15.1735301 L18.7122065,15.1735301 L18.7122065,11.5065989 L17.8198344,11.5065989 L17.8198344,15.1735301 Z M29.1676377,15.1735301 L27.9037737,15.1735301 L26.2410573,12.4235689 L26.2410573,15.1735301 L24.4553232,15.1735301 L24.1114396,14.3663423 L22.2706658,14.3663423 L21.9272065,15.1735301 L20.8968285,15.1735301 C20.4708979,15.1735301 19.9214902,15.0776597 19.6055684,14.7632087 C19.3166186,14.448266 19.1516407,14.0240681 19.1516407,13.3673783 C19.1656393,12.8204353 19.2346069,12.3276632 19.6330352,11.9307616 C19.8940233,11.6436772 20.3744634,11.5065989 20.9793351,11.5065989 L21.8171977,11.5065989 L21.8171977,12.3003319 L20.9793351,12.3003319 C20.6634133,12.3003319 20.4708979,12.3550297 20.2919568,12.5054926 C20.1274739,12.6694455 20.0585063,12.9570569 20.0585063,13.3400469 C20.0585063,13.7369134 20.1274739,14.0240681 20.2919568,14.2158091 C20.4159288,14.3389758 20.6634133,14.3936384 20.8968285,14.3936384 L21.2953276,14.3936384 L22.5595804,11.5065989 L23.8644501,11.5065989 L25.3482256,14.9678776 L25.3482256,11.5065989 L26.7084886,11.5065989 L28.2607721,14.0513995 L28.2607721,11.5065989 L29.1676377,11.5065989 L29.1676377,15.1735301 Z M10.0979733,20.7420269 L7.91381084,20.7420269 L7.91381084,20.0028863 L9.86452274,20.0028863 L9.86452274,19.2642375 L7.91381084,19.2642375 L7.91381084,18.5941279 L10.1255108,18.5941279 L11.1013087,19.6611391 L10.0979733,20.7420269 Z M12.2412006,19.6611391 L13.6014283,18.2245225 L13.6014283,21.1796444 L12.2412006,19.6611391 Z M15.6346821,19.5244825 L14.4668284,19.5244825 L14.4668284,18.5941279 L15.6346821,18.5941279 C15.9510988,18.5941279 16.1565876,18.7172946 16.1565876,19.0317806 C16.1565876,19.3461964 15.9510988,19.5244825 15.6346821,19.5244825 Z M19.9214902,19.3461964 C19.7840499,19.4012806 19.6600426,19.4012806 19.4955596,19.4012806 L18.4242111,19.4286471 L18.4242111,18.5941279 L19.4955596,18.5941279 C19.6600426,18.5941279 19.8115167,18.5941279 19.9214902,18.6622103 C20.0314637,18.7172946 20.0999717,18.8265848 20.0999717,18.9770828 C20.0999717,19.1415275 20.0314637,19.2642375 19.9214902,19.3461964 Z M15.6346821,17.827656 L12.8185347,17.827656 L11.6782539,19.0317806 L10.6064105,17.827656 L7.04791578,17.827656 L7.04791578,21.4945872 L10.5514061,21.4945872 L11.6782539,20.2904626 L12.763601,21.4945872 L14.4668284,21.4945872 L14.4668284,20.2631312 L15.5796424,20.2631312 C16.3355287,20.2631312 17.1049185,20.0579706 17.1049185,19.0317806 C17.1049185,18.0327816 16.3215654,17.827656 15.6346821,17.827656 Z M20.6359111,18.0054854 C20.3474561,17.8549522 20.0039968,17.827656 19.5501045,17.827656 L17.5308845,17.827656 L17.5308845,21.4945872 L18.4242111,21.4945872 L18.4242111,20.1538761 L19.3720825,20.1538761 C19.6880043,20.1538761 19.8664858,20.1812075 20.0039968,20.317829 C20.1549407,20.4956584 20.1549407,20.8101444 20.1549407,21.0569696 L20.1549407,21.4945872 L21.0343395,21.4945872 L21.0343395,20.7827428 C21.0343395,20.4544857 21.0068373,20.2904626 20.8968285,20.1126332 C20.8143926,20.0028863 20.6634133,19.8662647 20.4433957,19.7977256 C20.6904206,19.7157316 21.07531,19.4012806 21.07531,18.8265848 C21.07531,18.402387 20.9243307,18.169895 20.6359111,18.0054854 Z M24.5238313,20.7420269 L22.4491474,20.7420269 L22.4491474,20.0028863 L24.4828254,20.0028863 L24.4828254,19.2642375 L22.4491474,19.2642375 L22.4491474,18.5941279 L24.5238313,18.5941279 L24.5238313,17.827656 L21.5837825,17.827656 L21.5837825,21.4945872 L24.5238313,21.4945872 L24.5238313,20.7420269 Z M27.9037737,19.5517787 C27.6838268,19.3739844 27.3679051,19.2642375 26.8734665,19.2642375 L26.3924961,19.2642375 C26.2685594,19.2642375 26.158586,19.2369062 26.0490721,19.20961 C25.9526377,19.1688238 25.8701311,19.086373 25.8701311,18.9492948 C25.8701311,18.8265848 25.8980928,18.7441341 26.0076067,18.6622103 C26.0760794,18.6075125 26.1860528,18.6075125 26.3510307,18.6075125 L27.9723172,18.6075125 L27.9723172,17.827656 L26.2135904,17.827656 C25.265719,17.827656 24.9497618,18.402387 24.9497618,18.9224553 C24.9497618,20.085337 25.9801399,20.0306743 26.7909952,20.0579706 C26.9554781,20.0579706 27.0519479,20.085337 27.106917,20.1399645 C27.1614618,20.1812075 27.2168905,20.2904626 27.2168905,20.3997879 C27.2168905,20.4956584 27.1614618,20.578074 27.106917,20.6327366 C27.0239862,20.6873642 26.927976,20.7147307 26.7634576,20.7147307 L25.0597706,20.7147307 L25.0597706,21.4945872 L26.7634576,21.4945872 C27.65636,21.4945872 28.1647619,21.1249818 28.1647619,20.3456171 C28.1647619,19.9760468 28.0542935,19.7431332 27.9037737,19.5517787 Z M31.6132831,20.3456171 C31.6132831,21.1249818 31.1043863,21.4945872 30.2119435,21.4945872 L28.5082212,21.4945872 L28.5082212,20.7147307 L30.2119435,20.7147307 C30.3764619,20.7147307 30.5003985,20.6873642 30.5554382,20.6327366 C30.6104073,20.578074 30.6649168,20.4956584 30.6649168,20.3997879 C30.6649168,20.2904626 30.6104073,20.1812075 30.5554382,20.1399645 C30.5003985,20.085337 30.403964,20.0579706 30.2394458,20.0579706 C29.42905,20.0306743 28.3982478,20.085337 28.3982478,18.9224553 C28.3982478,18.402387 28.7416718,17.827656 29.662041,17.827656 L31.4207677,17.827656 L31.4207677,18.6075125 L29.7995519,18.6075125 C29.6345742,18.6075125 29.5246007,18.6075125 29.4560572,18.6622103 C29.373586,18.7441341 29.3186523,18.8265848 29.3186523,18.9492948 C29.3186523,19.086373 29.4010882,19.1688238 29.4970985,19.20961 C29.6074961,19.2369062 29.7175403,19.2642375 29.8410174,19.2642375 L30.3214574,19.2642375 C30.8163556,19.2642375 31.1322774,19.3739844 31.352295,19.5517787 C31.5032743,19.7431332 31.6132831,19.9760468 31.6132831,20.3456171 Z" id="Fill-2" fill="#879395" fill-rule="nonzero"></path>
                                    </g>
                                </g>
                            </g>
                        </g>
                    </g>
                </g>
            </g>
        </g>
    </g>
</svg>