<?xml version="1.0" encoding="UTF-8"?>
<svg width="16px" height="16px" viewBox="0 0 16 16" version="1.1" xmlns="http://www.w3.org/2000/svg" xmlns:xlink="http://www.w3.org/1999/xlink">
    <!-- Generator: Sketch 55 (78076) - https://sketchapp.com -->
    <title>2. Atoms/Icons/6. Social/ic_instagram</title>
    <desc>Created with Sketch.</desc>
    <defs>
        <path d="M11.9999524,5.44147062 L12.0000159,5.44143887 C9.86386686,5.44143887 9.61086842,5.44960017 8.76727565,5.4880885 C7.98728974,5.52365528 7.56369915,5.65398211 7.28180294,5.76354048 C6.9343286,5.89178889 6.62001338,6.09628097 6.36196449,6.36198324 C6.09623656,6.62003619 5.8917237,6.93436585 5.76346297,7.28186075 C5.65390547,7.56379096 5.52361143,7.98735315 5.48801318,8.76734525 C5.44952515,9.61100823 5.44136391,9.86394517 5.44136391,12.0001111 C5.44136391,14.1362771 5.44952515,14.3893093 5.48801318,15.232877 C5.52357967,16.0128691 5.65390547,16.4364631 5.76346297,16.7183615 C5.89171036,17.0658386 6.09620081,17.3801564 6.36190098,17.6382073 C6.61994849,17.9039112 6.93426412,18.1084036 7.28173942,18.2366501 C7.5636674,18.3461767 7.98722623,18.4765035 8.76721214,18.512102 C9.6107414,18.5505904 9.86364457,18.5587517 11.9999524,18.5587517 C14.1362602,18.5587517 14.3892586,18.5505904 15.2326926,18.512102 C16.0126785,18.4765353 16.4362691,18.3462084 16.7181653,18.2366501 C17.4158535,17.9675137 17.9673076,17.4160553 18.2364418,16.7183615 C18.3459675,16.4364313 18.4762933,16.0128691 18.5118916,15.232877 C18.5503796,14.3892141 18.5585408,14.1362771 18.5585408,12.0001111 C18.5585408,9.86394517 18.5503796,9.61094472 18.5118916,8.76734525 C18.4763251,7.98735315 18.3459993,7.5637592 18.2364418,7.28186075 C18.1081953,6.93438317 17.9037048,6.62006524 17.6380038,6.362015 C17.3799556,6.09631189 17.0656401,5.89181968 16.7181653,5.76357224 C16.4362373,5.65401387 16.0126785,5.52371879 15.2326926,5.48812026 C14.3890363,5.44963193 14.1360379,5.44147062 11.9999524,5.44147062 Z M12.0000159,4 L11.9999524,4 C14.1726205,4 14.4451488,4.00920925 15.2983001,4.04830095 C16.1498318,4.08701158 16.731344,4.22222884 17.2402306,4.41984674 C17.7740785,4.62076642 18.257668,4.93573123 18.6572696,5.34277282 C19.0642284,5.7423681 19.3791242,6.22592666 19.5799978,6.75972777 C19.7777729,7.26858672 19.9129891,7.8501035 19.9518582,8.70164199 C19.9907908,9.55480003 20,9.8273622 20,12.0000159 C20,14.1726696 19.9907908,14.4451047 19.9518582,15.2983898 C19.9129891,16.1498965 19.7777729,16.7314133 19.5799978,17.240304 C19.1643928,18.3148888 18.3149022,19.1643862 17.2403259,19.5799945 C16.731471,19.7777712 16.1499588,19.9129884 15.2984271,19.9518578 C14.4452758,19.9907907 14.1727158,20 12.0000794,20 C9.82744296,20 9.55500997,19.9907907 8.70173168,19.9518578 C7.85023172,19.9129884 7.26871955,19.7777712 6.75983289,19.5799945 C6.22603601,19.3791193 5.74248129,19.064221 5.34288918,18.6572589 C4.93593275,18.2576617 4.62103734,17.7741037 4.42016096,17.240304 C4.22238585,16.731445 4.08716967,16.1499283 4.04830057,15.2983898 C4.00920918,14.4452317 4,14.1727013 4,12.0000159 C4,9.82733045 4.00920918,9.55480003 4.04830057,8.70164199 C4.08701089,7.8501035 4.22222707,7.26858672 4.4198434,6.75969602 C4.62079328,6.22587266 4.93577674,5.74231259 5.34282567,5.34274106 C5.74241908,4.93578061 6.22597342,4.62088258 6.75976937,4.42000552 C7.26862428,4.22222884 7.85013645,4.08701158 8.70166817,4.04814217 C9.55481944,4.00920925 9.8273477,4 12.0000159,4 Z M11.9999524,7.89189447 C14.2687872,7.89189447 16.1080412,9.73116307 16.1080412,12.0000159 C16.1080412,14.2688687 14.2687872,16.1081373 11.9999524,16.1081373 C9.73111757,16.1081373 7.89186357,14.2688687 7.89186357,12.0000159 C7.89186357,9.73116307 9.73111757,7.89189447 11.9999524,7.89189447 Z M11.9999524,14.6666667 C13.4726964,14.6666667 14.6665962,13.4727716 14.6666137,12.0000159 C14.6666137,10.5272694 13.4727294,9.33337094 11.9999947,9.33336509 C10.52726,9.33335924 9.3333662,10.5272483 9.3333545,11.9999947 C9.33334281,13.4727411 10.5272176,14.6666491 11.9999524,14.6666667 Z M16.270345,8.68957469 C15.740164,8.68957469 15.3103673,8.25977459 15.3103673,7.7295893 C15.3103673,7.199404 15.740164,6.7696039 16.270345,6.7696039 C16.8005261,6.7696039 17.2303228,7.199404 17.2303228,7.7295893 C17.2303228,8.25977459 16.8005261,8.68957469 16.270345,8.68957469 Z" id="path-1"></path>
    </defs>
    <g id="Organisms" stroke="none" stroke-width="1" fill="none" fill-rule="evenodd">
        <g id="4.-Organisms/2.-Footer/1.-Desktop-(+)-1366" transform="translate(-1019.000000, -192.000000)">
            <g id="4.-Organisms-/-Footer-/-1366">
                <g id="--Social" transform="translate(1015.000000, 104.000000)">
                    <g transform="translate(0.000000, 44.000000)" id="--Insta">
                        <g transform="translate(0.000000, 40.000000)">
                            <g id="2.-Atoms/Icons/6.-Social/ic_instagram">
                                <g id="2.-Atoms/Icons/guide"></g>
                                <mask id="mask-2" fill="white">
                                    <use xlink:href="#path-1"></use>
                                </mask>
                                <use id="Icon" fill="#000000" fill-rule="nonzero" xlink:href="#path-1"></use>
                                <g id="1.-Quarks/Color/Basic/03.-Basic" mask="url(#mask-2)" fill="#879395" fill-rule="nonzero">
                                    <rect id="Rectangle" x="0" y="0" width="24" height="24"></rect>
                                </g>
                            </g>
                        </g>
                    </g>
                </g>
            </g>
        </g>
    </g>
</svg>