<?xml version="1.0" encoding="UTF-8"?>
<svg width="17px" height="13px" viewBox="0 0 17 13" version="1.1" xmlns="http://www.w3.org/2000/svg" xmlns:xlink="http://www.w3.org/1999/xlink">
    <!-- Generator: Sketch 55 (78076) - https://sketchapp.com -->
    <title>2. Atoms/Icons/6. Social/ic_twitter</title>
    <desc>Created with Sketch.</desc>
    <defs>
        <path d="M19.9989956,7.6094926 C19.3351058,7.85714286 18.6707137,8.10479311 18.0068238,8.10479311 C18.6707137,7.7335518 19.3351058,7.11419208 19.6007621,6.24765026 C18.9368723,6.61889157 18.1399031,6.86654183 17.3429339,6.99060103 C16.6790441,6.37170946 15.7489956,6 14.8194494,6 C12.8272776,6.12359105 11.2338414,7.6094926 11.2338414,9.3430444 C11.2338414,9.59069466 11.2338414,9.83834492 11.3664185,10.0859952 C8.44470046,9.96240412 5.92121588,8.72415283 4.19470046,6.74295077 C3.92904407,7.23825129 3.66338769,7.7335518 3.66338769,8.35244337 C3.66338769,9.46663546 4.32727756,10.4572365 5.25732601,11.0761281 C4.72601323,11.0761281 4.19470046,10.952537 3.66338769,10.7048867 L3.66338769,10.7048867 C3.66338769,12.3143793 4.85859033,13.5526306 6.45252865,13.9238719 C6.18687227,13.9238719 5.92121588,14.047463 5.52298239,14.047463 C5.25732601,14.047463 5.12474891,14.047463 4.85909252,14.047463 C5.39040529,15.2857143 6.58560794,16.1522561 8.17954626,16.1522561 C6.98434361,17.0187979 5.52348458,17.5140985 3.79696916,17.5140985 C3.53131277,17.5140985 3.26565639,17.5140985 3,17.5140985 C4.59393832,18.3806403 6.32045374,19 8.31262555,19 C14.6873745,19 18.2734846,14.0479311 18.2734846,9.71428571 L18.2734846,9.3430444 C18.9373745,8.84774389 19.4686872,8.35244337 20,7.60996075 L20,7.60996075 L19.9989956,7.6094926 Z" id="path-1"></path>
    </defs>
    <g id="Organisms" stroke="none" stroke-width="1" fill="none" fill-rule="evenodd">
        <g id="4.-Organisms/2.-Footer/1.-Desktop-(+)-1366" transform="translate(-1018.000000, -234.000000)">
            <g id="4.-Organisms-/-Footer-/-1366">
                <g id="--Social" transform="translate(1015.000000, 104.000000)">
                    <g transform="translate(0.000000, 44.000000)" id="--Twitter">
                        <g transform="translate(0.000000, 80.000000)">
                            <g id="2.-Atoms/Icons/6.-Social/ic_twitter">
                                <g id="2.-Atoms/Icons/guide"></g>
                                <mask id="mask-2" fill="white">
                                    <use xlink:href="#path-1"></use>
                                </mask>
                                <use id="Icon" fill="#909090" fill-rule="evenodd" xlink:href="#path-1"></use>
                                <g id="1.-Quarks/Color/Basic/03.-Basic" mask="url(#mask-2)" fill="#879395" fill-rule="nonzero">
                                    <rect id="Rectangle" x="0" y="0" width="24" height="24"></rect>
                                </g>
                            </g>
                        </g>
                    </g>
                </g>
            </g>
        </g>
    </g>
</svg>